<svg xmlns="http://www.w3.org/2000/svg" viewBox="0 0 130.94 106.76"><defs><style>.cls-1{fill:#ffb9a4;}.cls-2{fill:#f98f38;}.cls-3{fill:#ffc9b6;}.cls-4{fill:#2c1d1b;}.cls-5{fill:#3f2a28;}.cls-6{fill:#ffb65f;}.cls-7{fill:#e0d2d1;}.cls-8{fill:#efe8eb;}.cls-9{fill:#eddcda;}.cls-10{fill:#74cace;}.cls-11{fill:#ff5e4c;}.cls-12{fill:#f9ab43;}.cls-13{fill:#8da3ff;}</style></defs><title>conocenos-vector</title><g id="Capa_2" data-name="Capa 2"><g id="Layer_1" data-name="Layer 1"><path class="cls-1" d="M46.37,17.22c.12-.68.54-2.62-.14-3.35-.82-.9-2-.24-2.82,1.39a9.37,9.37,0,0,0-1.12,3.81C40.72,18.4,39.83,18,40,18.79s1.77,1.69,2,2.64c.48,2.19-.84,4.72-.7,7,.09,1.35.19,2.83.39,4.29-1.86,3.9-2.06,9.05-2.23,13-.11,2.63,1.09,3.82,2.76,5.76.67.76,2.06,4,3.44,3.67s.5-10.35.07-13.54c-.23-1.67.72-4.63.7-9.89,0-3.13-1-6.78-1.42-9.89A12.94,12.94,0,0,0,46.37,17.22Z"/><path class="cls-2" d="M11.61,97.38c-2.51.08-1-4.08-.51-5.2.35-.88.65-1.77,1.59-2.13s2-.41,3-.73a4.83,4.83,0,0,1-.88-1.11c-1-1.76-3.2-.17-4,1S9.64,92,8.64,93.55a5,5,0,0,0,.27,5.5c.9,1.42,2.77,1.31,3.56-.55.22-.53.42-1,.6-1.51A3.73,3.73,0,0,1,11.61,97.38Z"/><path class="cls-3" d="M15.72,94c.85,1,2.68-2.78,2.68-2.78a11.45,11.45,0,0,1-2.73-1.9c-.95.32-2,.37-3,.73s-1.24,1.25-1.59,2.13c-.45,1.12-2,5.28.51,5.2A3.73,3.73,0,0,0,13.07,97c.47-1.22.85-2.29,1.25-3.08C14.48,93.6,14.88,93.05,15.72,94Z"/><path class="cls-2" d="M23.31,87.79c-2.51.08-1-4.08-.51-5.2.36-.89.65-1.78,1.59-2.13s2-.41,3-.73a4.4,4.4,0,0,1-.87-1.12c-1-1.75-3.2-.16-4,1s-1.15,2.74-2.15,4.3a5,5,0,0,0,.27,5.51c.91,1.42,2.77,1.31,3.56-.55.22-.53.42-1,.61-1.52A3.79,3.79,0,0,1,23.31,87.79Z"/><path class="cls-3" d="M27.43,84.41c.84,1,2.68-2.78,2.68-2.78a11.41,11.41,0,0,1-2.74-1.9c-.94.32-2,.36-3,.73s-1.23,1.24-1.59,2.13c-.45,1.12-2,5.28.51,5.2a3.79,3.79,0,0,0,1.47-.4c.47-1.22.84-2.28,1.25-3.07C26.19,84,26.58,83.46,27.43,84.41Z"/><path class="cls-4" d="M29.27,81.36s-2.36,1.08-1.84,3c1.25,1.15,5.12,4.78,5.12,4.78l2.72-4.31Z"/><path class="cls-4" d="M48.87,72.36c-2.18.68-4.51,2.16-6.63,2.15a9.45,9.45,0,0,1-4.92-1.13c-2,2.27-3.73,5.14-2.38,8,.75,1.6,1,3.42,1.92,5,.53.89,2.54,7.33,3.5,8.35.39.42.6,1.7,2.75,1.35,1-.16,2-1.9,2.43-2.65,2.5-3.85,3.74-8.92,2.27-11.68A13.86,13.86,0,0,0,48.87,72.36Z"/><path class="cls-5" d="M44.16,76.94c-.11-.15-9.42-3.25-9.64-2.91a3.15,3.15,0,0,0-.42.09,6.73,6.73,0,0,0-4.29,3.3,6.46,6.46,0,0,0,.86,8C29.11,88.21,29.09,94,29.18,95.9c-.54-.39-1.53-1.88-3.35-2.4a54.34,54.34,0,0,1-8.66-3c-.94.86-2.09,1.49-1.45,3.49a14.1,14.1,0,0,0,4.71,3.93c2.65,1.48,5.17,3.55,7.74,5.08a4.28,4.28,0,0,0,5.25-.56,29.35,29.35,0,0,0,5.26-5,22.37,22.37,0,0,0,3.88-10.28C46.44,83.09,45.5,78.75,44.16,76.94Z"/><path class="cls-6" d="M44.79,52.65a9.27,9.27,0,0,0-3.07-3,3.22,3.22,0,0,0-2.63-.3c-3.6.9-10.24,5-11.14,7.77-.66,2,1.43,4.54,2.37,6,1.11,1.69,2.47,2.94,3.2,4.82a6.06,6.06,0,0,1-.15,4.46c-.86.17-1.8,0-1.86,1.22-1.23.12-1.31.55-1.5,1.16-.7,2.15,2.07,5.52,3.35,6.44,3.92,2.78,9.71,2.11,13.82-.6a5,5,0,0,0,2.19-5c-.22-1.62-.19-7.3-2-12.36a4.3,4.3,0,0,0,2.09-3.39C49.69,56.58,46.44,54.89,44.79,52.65Z"/><path class="cls-5" d="M31.8,53a10.57,10.57,0,0,0,5.82,3.54c3.52.62,4.9-.52,5.17-2.8s-2.22-4.27-2.22-4.27a9,9,0,0,0-4.47.77C34.39,51.25,31.8,53,31.8,53Z"/><path class="cls-4" d="M43.48,37.09c1.58-2,.55-5.26-1.8-5.18.39-1.13-1.07-2.58-2.12-2.74a2.49,2.49,0,0,0-2.69,2.59,2.39,2.39,0,0,0-1.7.72A2.77,2.77,0,0,0,35,35.19h0c-1.63,3.66,2.21,8.54,5.82,9.38a3.45,3.45,0,0,0,4.26-2.2C45.8,40.39,44.79,38.53,43.48,37.09Z"/><path class="cls-1" d="M40.27,50.54c-.43-.43-.28-1.39-.45-2.06a7.26,7.26,0,0,1-2.41-.26A6.47,6.47,0,0,1,34.5,46.3a.32.32,0,0,0,.08.39c-.2,2.66-.76,3.58-2.22,5.92,1.47,1.71,6.32,4.25,8.76,2.26C42.11,54.05,42,52.31,40.27,50.54Z"/><path class="cls-3" d="M41.81,41.87c-.52-1.47-1.42-3.25-2.89-4s-3.43-.22-4.87.33c-2.23.86-3.07,3.87-1.78,6.67,1.2,2.58,4.27,6.18,7.44,5.83C43.25,50.35,42.59,44.11,41.81,41.87Z"/><path class="cls-5" d="M42.74,34.73a1.85,1.85,0,0,0-1-.08A1.39,1.39,0,0,0,41,33.22c-1.46-.8-2.78.3-3.47,1.6a5.31,5.31,0,0,0-4.1-.32,6.73,6.73,0,0,0-4.13,3.13.48.48,0,0,0-.05.14,2.79,2.79,0,0,0-2.27,2.92,2.56,2.56,0,0,0-1.27-.19,3.1,3.1,0,0,0-1.68.72,1.73,1.73,0,0,0-1.17-.32,2.5,2.5,0,0,0-2.06,1.65A2.68,2.68,0,0,0,22.65,46a2.41,2.41,0,0,0,2.53,1.88,3.57,3.57,0,0,0,.89-.1A2.49,2.49,0,0,0,28,50.29a2,2,0,0,0,1.78-.7,3.43,3.43,0,0,0,3.65.22c1.31-.89,1.85-3.32.56-4.4a4.57,4.57,0,0,0,.67-4.35,4.44,4.44,0,0,0,1.83-.6,4.4,4.4,0,0,0,1.32-1.22c2,1.08,5.24.17,6-2.07A1.94,1.94,0,0,0,42.74,34.73Z"/><path class="cls-3" d="M27.45,54.92c-1.16-1.5-4-2.94-6.15-4.44a21.69,21.69,0,0,0-4.5-5c-1-.89-4.75-3.44-5.91-4.45-.44-.9-.67-2.39-1.09-3.49s-.78-1-1-.51.33.89.27,1.76-.84.94-2.56-.1-3.69-1.41-4.37-.56-.28,2.59,2,3.79,3.52.69,5.51,1.78c1.74,2.59,4.09,6.1,5.87,7.67,1.46,1.3,2.79,2.65,4.41,3.08,1,2.21,6.08,7.58,9.4,9.66,1.9,1.2,3.59,1.31,4.26.08C34.91,61.73,32.11,54.14,27.45,54.92Z"/><path class="cls-2" d="M32.42,76a7.42,7.42,0,0,0,4.09,3.51,6.21,6.21,0,0,0,4.14,0,18,18,0,0,1-4.25-1.16A27.81,27.81,0,0,1,32.42,76Z"/><path class="cls-2" d="M46.3,62.39c.15-.3-2.25,3.16-4.31,3.73a9.5,9.5,0,0,1-3.85.24s2.45,2,4.88.84S45.67,63.65,46.3,62.39Z"/><path class="cls-1" d="M77.11,14.08c-.28.35-.59.71-.9,1.07a13.43,13.43,0,0,1,2.9,1.48A5.52,5.52,0,0,1,80,15.35c.7-.72,2.63-.58,3.2-1.25s-.46-.76-2.22-1a10,10,0,0,0,1.11-4c.18-1.89-.52-3.13-1.74-2.78-1,.28-1.7,2.23-2,2.9A13.39,13.39,0,0,0,77.11,14.08Z"/><path class="cls-7" d="M80,36.49a9.53,9.53,0,0,0,.13-4.19,10.58,10.58,0,0,0-2.37-4.83c0-1.3,1.82-7,1.09-9.87-.53-2.07-3-2.81-3.89-1.1-.77,1.52-2.47,4.41-2.73,6a8.06,8.06,0,0,0,.43,5c-1.23,1.5-1.15,7.2.77,10.44-.42,3.41,1.23,10.59,2.9,11.17,1.43.49,2.77.39,3.47-.58,1.31-1.81,3.71-4.76,3.87-7.06A6.18,6.18,0,0,0,80,36.49Z"/><path class="cls-4" d="M86.08,81.37c.11-2.59.92-5.2.89-7.78a3.33,3.33,0,0,0-1.65-3c-1.84-1.06-4-.68-5.9-1.86-1.6-1-2.74-2-4.71-1.45a.56.56,0,0,0-.39.4c0,.24-.1.46-.15.69C72.43,71.5,71,75.11,71.82,78.61c-1.82,5.78-2.76,12-1.47,18,.35,1.58.92,3.84,2.77,4.27a2.22,2.22,0,0,0,2.53-1.1c3.39.79,7-3,8.85-5.37a7.77,7.77,0,0,0,2-4.33C86.65,87.18,86,84.28,86.08,81.37Z"/><path class="cls-4" d="M74.49,70.38Z"/><path class="cls-4" d="M111.4,98.15a19.29,19.29,0,0,0-1.83-5.6,4.06,4.06,0,0,0,0-2.82,2.63,2.63,0,0,0-3.44-1.62A5.59,5.59,0,0,0,103,90.05c-1.13,2.48.87,6.57,1.55,8.72.46,1.46,1,3.15,1.53,4.58.71,1.75,3,.83,3.63.16A6.32,6.32,0,0,0,111.4,98.15Z"/><path class="cls-5" d="M107.54,92.12a2.94,2.94,0,0,0-1.19-1.64,6.25,6.25,0,0,0-2.95-.94,86.7,86.7,0,0,0-6,7.58c-.32-1.19-.07-10.14-3.14-13.61C95,82,96.82,77.29,92.61,71.93c-1.26-1.61-9.15-.64-11.87-1.11C79.59,74,77,80.54,81.12,85.07c1.6,6.56,6,11.08,8.9,15.51a25.48,25.48,0,0,0,4.32,5.32c2,1.58,3.22.65,4.91-.1,2.52-1.11,3.26-1.72,5.49-6,1.56-3,1.8-4.8,2.89-6.76A3.79,3.79,0,0,0,107.54,92.12Z"/><path class="cls-8" d="M85.47,40.36c-2-.7-3.32-1.17-7.09,3-2.66,2.91-4.23,11.24-4,12.57a20.52,20.52,0,0,1-3.66,12.6c2,3.11,7.86,7.92,11.81,7.68,4.78-.29,7.76-1.26,10.8-3.69-.2-1.26-1.28-3.7-.27-6.26,1.75-4.43,3.28-7.27,4.2-12.09C98.72,46.44,90,41.9,85.47,40.36Z"/><path class="cls-1" d="M84.41,39.48a22.67,22.67,0,0,1-1.78,6.24c-.26,2.69.78,4.54,3.65,2.48a51.73,51.73,0,0,0,5.75-5l-.61-4.81Z"/><path class="cls-9" d="M91.83,41.62A6,6,0,0,1,89.27,45c-2,1.38-2.88,1-4.64,1.31a3.2,3.2,0,0,0-3.06,2.82c.72-.14.83-.5,1.4.17.37.45.26,1,.31,1.48a1.37,1.37,0,0,0,1.82,1c-.42-2,3.82-3.19,4.88-3.59a4.71,4.71,0,0,0,2.66-2.76C93,43.72,92.81,42.21,91.83,41.62Z"/><path class="cls-9" d="M83.38,41.15a27,27,0,0,0-2.28,2.46c-.81,1.06-.69,2.25-1.38,2.78a4.52,4.52,0,0,1-1.34.71,4,4,0,0,0,1.79.08c.47-.24,1-.37,1.17-.23s1,1.15,1.12,1a12.08,12.08,0,0,1,1.46-.8,4,4,0,0,1-.39-2.71,8.64,8.64,0,0,1,.94-2.38Z"/><path class="cls-3" d="M94.12,34.44c0-2.08-5.31-4.78-7.42-4.47-3.16.47-4.38,4.35-4.89,7.25-.54,3.05.72,7.25,5.38,5.82C91,41.87,94.14,38.51,94.12,34.44Z"/><path class="cls-4" d="M94.78,33.59A3.08,3.08,0,0,0,94,30.23a6.21,6.21,0,0,0-3.17-1.43c-1-.21-1.44-.1-2.26-.8s-.63-1.05-1-2c-1.06-3-4.41-.44-4.38,2.22a1,1,0,0,0-1,.08c-.87.54-.67,1.69-.2,2.41A5.54,5.54,0,0,0,85.53,33c.51,2.46,3.28,2.64,4.29,2.25a7.82,7.82,0,0,0,1.94,6.09c.84-.94,3.6-2,4.09-4.65A3.32,3.32,0,0,0,94.78,33.59Z"/><path class="cls-3" d="M89.63,37.6s1.42-1.14,1.9.17c.43,1.16-.11,2.42-1.59,2.31C88.65,40,89.63,37.6,89.63,37.6Z"/><path class="cls-3" d="M120.56,23.2c-.83-.89-3-.27-4.82,1.05s-2.71,1.34-2.85.36.44-1.41.13-2-.72-.6-1.08.67-.47,2.95-.87,4c-.5.52-1.47,1.38-2.51,2.29a14.93,14.93,0,0,0,2.79,3.13l1.43-2.55c2.11-1.42,3.59-1,6-2.52S121.4,24.08,120.56,23.2Z"/><path class="cls-9" d="M109.35,28.67c-4,2.9-3.82,4.84-5.73,7.66a37.65,37.65,0,0,0-6.56,8.56c-2.37,0-4.25,2.36-6.29,8-1.34,3.71-.31,10.36,4.68,6.43a18.78,18.78,0,0,0,5.74-8c1.73-.07,3.82-2.93,6.73-9.08,1.25-2.65,2.5-5.58,4.6-11.17C110.79,29.83,110.16,29.32,109.35,28.67Z"/><path class="cls-8" d="M108.56,29.29a4.1,4.1,0,0,0,1.38,1.84,11.37,11.37,0,0,0,2.13,1.18L113,30l-2.23-2.47S109.25,28.69,108.56,29.29Z"/><path class="cls-8" d="M75.67,15.29c-.16.31-.7,1.21-.7,1.21s1.52.37,2.31.68A6,6,0,0,1,79,18.46s1.1-2.42-.13-3.34S76.43,13.89,75.67,15.29Z"/><path class="cls-10" d="M15,31.56A80.77,80.77,0,0,0,.1,22.71c-.07,0-.14.07-.07.12,5,2.87,9.83,6,14.76,9C15,32,15.21,31.69,15,31.56Z"/><path class="cls-6" d="M17.23,29.37A95.19,95.19,0,0,0,5.52,20.94s-.1,0,0,.09C9.28,23.93,13,27,17,29.69,17.17,29.82,17.4,29.52,17.23,29.37Z"/><path class="cls-11" d="M28.61,5.23c0-.08-.16,0-.13.06a131,131,0,0,0,5,14.53c.1.26.5.17.42-.11A133.16,133.16,0,0,0,28.61,5.23Z"/><path class="cls-12" d="M34.27,6.9c-.05-.26-.43-.15-.39.11.61,3.53,1.14,7.11,2,10.58,0,.16.31.13.29,0C35.81,14,35,10.43,34.27,6.9Z"/><path class="cls-13" d="M102.35,0a105,105,0,0,0-8.2,16c-.11.26.31.42.44.19C97.41,11,100.06,5.51,102.45.09,102.48,0,102.39,0,102.35,0Z"/><path class="cls-11" d="M105,5.9c-2.22,4.26-4.77,8.34-7,12.59a.22.22,0,0,0,.37.22A70.5,70.5,0,0,0,105.12,6C105.15,5.89,105.05,5.82,105,5.9Z"/><path class="cls-6" d="M129.67,12A92.31,92.31,0,0,0,118.4,18c-.08.05,0,.21.07.17a93.58,93.58,0,0,0,11.39-5.77A.19.19,0,0,0,129.67,12Z"/><path class="cls-11" d="M130.63,16a31.17,31.17,0,0,0-8.57,3.37c-.13.07,0,.3.1.24,2.84-1.16,5.73-2.08,8.6-3.13A.25.25,0,0,0,130.63,16Z"/></g></g></svg>