<svg xmlns="http://www.w3.org/2000/svg" viewBox="0 0 100.67 133.14"><defs><style>.cls-1{fill:#53b7b7;}.cls-2{fill:#3f2a28;}.cls-3{fill:#f4ebea;}.cls-4{fill:#ffb9a4;}.cls-5{fill:#5e79e6;}.cls-6{fill:#fff;}.cls-7{fill:#74cace;}.cls-8{fill:#ffc9b6;}.cls-9{fill:#2c1d1b;}.cls-10{fill:#8da3ff;}.cls-11{fill:#778dfd;}.cls-12{fill:#ff5e4c;}.cls-13{fill:#f74f43;}.cls-14{fill:#ef4335;}.cls-15{fill:#eddcda;}</style></defs><title>contacto-vector</title><g id="Capa_2" data-name="Capa 2"><g id="Layer_1" data-name="Layer 1"><path class="cls-1" d="M44.64,28c-2.75-1.35-8.76-2.35-10-3-.77-1-1.91-3.37-2.84-4.75-.71-1.06-1.78-4-3.17-5.73-1.56-1.91-3-2.26-5-2.55a1.29,1.29,0,0,0-1.4.56,4,4,0,0,0,0,2.52c.21,1.25.45,2.5.67,3.75.28,1.51,3.25,4.7,3.79,5.27s2.83,4.41,3.36,5.2a9.91,9.91,0,0,0,4.32,2.23c.74.16,6.63,1.65,9.82,1.6C44.15,32.5,44.63,29.47,44.64,28Z"/><path class="cls-2" d="M25.92,89.8A14,14,0,0,1,25.11,92a6.14,6.14,0,0,0-.34,2.75,1.67,1.67,0,0,0,1.17,1.11,4.09,4.09,0,0,0,1.78.22,13.3,13.3,0,0,0,1.92,2.41,10.44,10.44,0,0,0,4.59,2.21,1.91,1.91,0,0,0,2.06-1.48A7.73,7.73,0,0,0,34,95.7a25.68,25.68,0,0,1-2.63-3.13,3.76,3.76,0,0,1-.67-2.13Z"/><path class="cls-2" d="M1,76a16.59,16.59,0,0,0-1,3.79,2.89,2.89,0,0,0,.6,2.32.85.85,0,0,0,.9.38s-.13,2.94,1.12,4.27a6,6,0,0,0,5,1.42c1.2-.3.67-2.47-.23-4.64S5.26,79,5.11,77.15C2.39,76.47,1,76,1,76Z"/><path class="cls-1" d="M26.69,39.19s3,9.35,3.37,13.08,1.12,9.39,1.51,14.09-.23,10.69-.13,14.26c0,1.81-.9,7.24-.71,9.82-.49,1.65-4.46,1.33-4.81-.64-.21-1.21-3.14-13-3.24-16.35a15.46,15.46,0,0,1,.83-5.72s-4.26-10.74-5.73-15,0-9.24,0-9.24Z"/><path class="cls-1" d="M13.19,41.36a30.6,30.6,0,0,0-3.06,7.73c-1.08,4.42-.82,12.75-.82,12.75s-3.18.78-4.69,5.1c-1.2,3.45-2.55,5.8-3.69,9.32,0,3.83,4.45,2.33,4.45,2.33S9,74.5,11.46,71.85c1.86-2,3.68-3.36,4.4-4.68,1.68-3.1,3.57-13.63,3.57-13.63s5-.59,4.21-8.27C23.12,40.08,13.19,41.36,13.19,41.36Z"/><path class="cls-3" d="M18.24,15.59c1-.3,4.67-1.5,5-1.32,2.66,1.32,4.33,6.3,4.72,9.8a22,22,0,0,1-.9,7.75,3.35,3.35,0,0,1,.3,3c-.09.72,1.2,1.67,1.47,2.34a3.22,3.22,0,0,1-.4,3.57c-1.32,1.43-2.63,3.84-7,4.3s-7.76-1.06-9.12-2.88c-.32-.43,0-3.62.95-4.23-.73-2.22-1.47-5-2.19-7.66-1.07-4-2-7.86.28-10.89C12.39,18,16.17,16.27,18.24,15.59Z"/><path class="cls-4" d="M17.79,10.79s3.56,2.68,4.71,4.5.12,3.07-.48,7.26c-3.26-1.13-5.81-3.61-6.59-5.86C16.56,16.07,17.79,10.79,17.79,10.79Z"/><path class="cls-5" d="M23.26,27.59a28.57,28.57,0,0,0-1-3.69h0A11.84,11.84,0,0,1,22.77,22l-1.58-.62-.93,1.11a4,4,0,0,0,1.14,1.56h0c0,1.61-.09,4.57-.13,7.25-.06,4.28,0,7.37,0,7.37a9.74,9.74,0,0,0,2,2.09,10.54,10.54,0,0,0,1-2.89S23.72,30,23.26,27.59Z"/><path class="cls-6" d="M14.32,16.89a21.54,21.54,0,0,1,3.75,2.05c1.48,1.23,2.19,1.56,2.93,2.27.07-.18.27-3.51.27-3.51s1.24.15,1.23.18a4.38,4.38,0,0,1,1,2,6.84,6.84,0,0,1-.22,2.93l-2.05-1.25L19.8,24.07a52.71,52.71,0,0,1-4-3.78A7,7,0,0,1,14.32,16.89Z"/><path class="cls-7" d="M22.28,15s.87-2.16,2.88-.16,4.23,7.24,3.59,11.94c-.4,2.91.25,7.2.68,10.53a115.51,115.51,0,0,0,2.71,11.4,8.78,8.78,0,0,1-1.83,3.76A7.21,7.21,0,0,1,26.61,54s-1-12.36-1.14-13.65-.63-8.14-.5-10.16-1-8.79-1.49-10.3-3.22-4.57-3.22-4.57Z"/><path class="cls-1" d="M21.81,17.17a12.34,12.34,0,0,1,1.46,2.61c.65,1.57.86,5,1.05,7a37.39,37.39,0,0,0,.62,4,20.11,20.11,0,0,0,.9-3.68c.14-1.49.33-2.63.33-2.63l-1-.82,1-2.32s-2.54-5.53-3.61-5.85S21.81,17.17,21.81,17.17Z"/><path class="cls-7" d="M15.44,16.2a23.44,23.44,0,0,1,3.92,9.48c.89,5.51.33,11.18,0,15.11-.41,5,.9,14,.9,14a16.21,16.21,0,0,1-9.28.32C8.07,54.25,5.9,51,5.9,51A87.22,87.22,0,0,1,9.4,36.17c.82-2.41.3-7.62-.68-10.63a7.66,7.66,0,0,1,1.82-6.69C12.33,17.2,14,17,15.44,16.2Z"/><path class="cls-1" d="M16.5,15A4.4,4.4,0,0,0,14,16.82a11.08,11.08,0,0,1,1.35,3.28,16.47,16.47,0,0,1,.21,3.6l2,.87-1.14,2L19.75,31s.51-5.76-.82-9.92A33.38,33.38,0,0,0,16.5,15Z"/><path class="cls-8" d="M26.49,10.28c-.07-1.55-.4-3.49-1.59-4.6s-3.2-1.19-4.72-1.09c-2.37.17-4,2.78-3.62,5.81.39,2.8,2.26,7.11,5.37,7.69,1.59.3,2.82-.89,3.55-2.42A12.62,12.62,0,0,0,26.49,10.28Z"/><path class="cls-9" d="M25.83,6.68v0S25.83,6.69,25.83,6.68Z"/><path class="cls-8" d="M19,11.35s-.57-1.23-1.55-.56.78,2.73.78,2.73Z"/><path class="cls-9" d="M14.64,5.34c.31-2.06,3.19-3.79,5.63-2.6C21,1,23.35-.49,25.19.15a2.6,2.6,0,0,1,1.81,2,1.5,1.5,0,0,1-.17.85,6.56,6.56,0,0,1,1.55.51c1.77.83,2,2.25,1,3.92-1.47,2.4-6.13,4.08-8.5,2.21.05,2.18-1.91,5-4.1,4.63C16.92,12.45,13.8,10.76,14.64,5.34Z"/><path class="cls-8" d="M20.68,12.74S19.23,10.15,18,11.61s.92,2.67.92,2.67Z"/><polygon class="cls-10" points="64.22 34.17 39.77 48.25 15.36 34.15 39.8 20.08 64.22 34.17"/><polygon class="cls-11" points="39.77 74.2 39.77 48.25 15.36 34.15 15.36 60.1 39.77 74.2"/><polygon class="cls-5" points="64.22 60.13 64.22 34.17 39.77 48.25 39.77 74.2 64.22 60.13"/><path class="cls-3" d="M59.94,45.86c-1-2.85-3.41-3.76-6.15-2.31s-5.45,5-6.39,8.93c-.9,3.77.59,6.19,2.87,6.18,2.12,0,5.22-2.48,6.16-6.17.46-1.77.3-3.63-.71-4.11-.81-.38-2.1.24-2.95,1.56s-1.14,3.27-.3,3.74c.65.36,1.67-.56,2-1.79,0-.21-.18-.21-.24,0-.47,1.69-1.82,1.64-1.79.27a3.92,3.92,0,0,1,1.07-2.46c1.1-1.12,2.29-1,2.64.24.87,3.07-2.26,7-4.5,7.84-2,.7-3.88-.34-4-3-.16-2.89,1.66-6.48,3.65-8.58,4.51-4.77,9.47-2.59,8.55,4.41a17.53,17.53,0,0,1-3.93,8.7c-2.12,2.58-4.72,5-7,5.45s-3.9-1.34-4.39-4.15a20.44,20.44,0,0,1,1.17-10.92c.07-.16-.09-.19-.16,0a19.58,19.58,0,0,0-1.27,12.26c.78,2.9,2.81,4.29,5.46,3.24,2.88-1.14,6.53-4.7,8.65-8.61C60.2,53,60.89,48.62,59.94,45.86Z"/><path class="cls-3" d="M17.73,45.87c1.05,0,4.65,1.44,7,2.53a33.11,33.11,0,0,1,3-5.47s2.12,5.74,3,8.75c2.06,1.77,4.82,4.09,6.27,5.6a20.42,20.42,0,0,1-4.55,2.63,74.21,74.21,0,0,1,1.94,9.3,64.32,64.32,0,0,1-6.53-7,24.54,24.54,0,0,1-5.74.38A68.71,68.71,0,0,1,22.91,54,74,74,0,0,1,17.73,45.87Zm6,7.92c-.26,1.78-.79,6.72-.81,8,1.27-.23,4.2-.36,4.85-.58.51.55,3.29,3.65,3.84,4.28a14.29,14.29,0,0,0,1.87,2c.08-.61-1.62-7.38-1.76-8.16,1.26-.67,3-1.62,4.3-2.23-1.69-1.44-3.72-3.29-5.56-4.75-.83-3-2.18-7-2.75-8.37-.62,1.25-2.24,4.63-2.57,5.53-1.08-.37-5.05-2.26-6.32-2.68C19.82,48.48,22.38,52.2,23.69,53.79Z"/><polygon class="cls-12" points="88.65 48.27 64.2 62.34 39.79 48.24 64.23 34.17 88.65 48.27"/><polygon class="cls-13" points="64.2 88.29 64.2 62.34 39.79 48.24 39.79 74.19 64.2 88.29"/><polygon class="cls-14" points="88.65 74.22 88.65 48.27 64.2 62.34 64.2 88.29 88.65 74.22"/><path class="cls-3" d="M84.37,60c-1-2.84-3.41-3.76-6.15-2.31a14.46,14.46,0,0,0-6.39,8.93c-.9,3.77.59,6.19,2.87,6.18,2.12,0,5.22-2.48,6.16-6.17.46-1.77.3-3.63-.71-4.1-.81-.39-2.1.23-3,1.55s-1.14,3.28-.3,3.75c.65.36,1.67-.57,2-1.79,0-.21-.18-.21-.24,0-.47,1.7-1.82,1.64-1.79.27A3.92,3.92,0,0,1,77.9,63.8c1.1-1.12,2.29-1,2.64.24.87,3.07-2.26,7-4.5,7.84-2,.7-3.88-.34-4-3-.16-2.88,1.66-6.48,3.65-8.58,4.51-4.77,9.47-2.59,8.55,4.41a17.49,17.49,0,0,1-3.93,8.7c-2.12,2.58-4.72,5-7.05,5.45s-3.9-1.34-4.39-4.14A20.42,20.42,0,0,1,70,63.76c.07-.17-.09-.2-.16,0A19.55,19.55,0,0,0,68.59,76c.78,2.91,2.81,4.3,5.46,3.25,2.88-1.15,6.53-4.7,8.65-8.61C84.63,67.07,85.32,62.71,84.37,60Z"/><path class="cls-3" d="M44.05,31a20.51,20.51,0,0,0-4.75,2,13.08,13.08,0,0,0-3.48,2.74c-3.23,4.76,3.34,8.6,5.6,9.76,3.32,1.69,6.68,2.1,10.63,2.83,5.59,1,10.84,5,15,7.35,1,0,4.31-2,5.48-2.69.22-.14.47-.27.71-.41l.71-.41c1.24-.68,4.61-2.6,4.66-3.17-4.14-2.39-10.92-5.42-12.73-8.65-1.27-2.27-2-4.21-4.9-6.13A22.57,22.57,0,0,0,44.05,31ZM71.91,51.85c-.31.17-3.28,1.83-4.86,2.59a62.61,62.61,0,0,0-6.91-4.22c1.1-.54,2.09-1.15,3.11-1.74.47-.27,1-.52,1.45-.79s.9-.57,1.37-.84c1-.59,2.08-1.16,3-1.79a67.11,67.11,0,0,0,7.3,4C75.08,50,72.21,51.67,71.91,51.85ZM64,39.63a13,13,0,0,0,4.16,4.76c-1.16.54-2.21,1.17-3.29,1.76-.48.27-1,.51-1.48.78s-.89.57-1.34.85C61,48.4,59.93,49,59,49.68a31.94,31.94,0,0,0-8.24-2.4c-4.05-.63-7.59-1.56-10.54-3.52a8.09,8.09,0,0,1-3.46-4.44c-.85-2.55,2.78-5.16,3.65-5.66a18.82,18.82,0,0,1,9.82-2.12,22.69,22.69,0,0,1,7.69,2A12.23,12.23,0,0,1,64,39.63Z"/><path class="cls-3" d="M49.63,43.22A.89.89,0,0,0,49.5,43a3.21,3.21,0,0,0-1.75-.74c-1.26-.19-2.6.21-2,1,.44.59,1.71,1,3.36.56a.89.89,0,0,0,.35-.19c1.82.47,3.66.88,5.43,1.46a55.59,55.59,0,0,1,7.22,3.09c.48.23,1.06-.09.61-.35A38.13,38.13,0,0,0,49.63,43.22Z"/><path class="cls-3" d="M56.81,39.07a1.78,1.78,0,0,1-.39-.07,2,2,0,0,1-1.28-1c-.34-.73.35-1.5,1.82-1.14,1,.26,1.79,1,.95,1.95a.8.8,0,0,1-.32.2,31.11,31.11,0,0,0,2.54,3.13,35.72,35.72,0,0,0,5.34,4.18c.4.27-.15.6-.61.34C61.37,44.68,58,41.81,56.81,39.07Z"/><path class="cls-3" d="M68.68,47.66c-1,.52-1.93,1.06-2.87,1.6a10.15,10.15,0,0,0-1.56.91c-.14.13.29.42.51.35a11.31,11.31,0,0,0,1.7-.88c1-.52,2-1,2.91-1.58C69.75,47.84,69.08,47.45,68.68,47.66Z"/><path class="cls-3" d="M71.15,49.08c-1,.53-1.93,1.06-2.87,1.61a9.56,9.56,0,0,0-1.55.9c-.15.13.28.42.5.35a10.4,10.4,0,0,0,1.7-.87q1.48-.78,2.91-1.59C72.23,49.26,71.55,48.87,71.15,49.08Z"/><path class="cls-3" d="M38,31.39c-.73-.85-4.76-3.06-5.77-3.47-.15-.06-.34.14-.26.26.57.86,4.58,3.24,5.76,3.68C38,32,38.18,31.58,38,31.39Z"/><path class="cls-3" d="M32.55,36.29A24.37,24.37,0,0,0,26.17,35a.13.13,0,0,0-.06.24,24.83,24.83,0,0,0,6.3,1.55C32.66,36.77,32.79,36.41,32.55,36.29Z"/><path class="cls-3" d="M42.91,24.38a.3.3,0,0,0-.54.23c.17.79.89,3.93,1.14,4.68a.33.33,0,0,0,.64-.08A16,16,0,0,0,42.91,24.38Z"/><path class="cls-3" d="M38.6,26c-.16-.2-.48,0-.41.24h0A10.54,10.54,0,0,0,39.52,29c.15.14.47.05.45-.19A10.31,10.31,0,0,0,38.6,26Z"/><path class="cls-3" d="M33.28,33.09c-.19-.57-2.68-1.37-3.33-1.36-.1,0-.18.12-.12.2A10,10,0,0,0,33,33.38.24.24,0,0,0,33.28,33.09Z"/><path class="cls-6" d="M53.2,58.64c-1.87-1.56-4.53-2.25-5.3-.1a5,5,0,0,0,1.38,4.86c.43.39.57-.25.2-.77a7.5,7.5,0,0,1-.61-.87c-1-2.06.07-3.73,1.69-3.3a6.88,6.88,0,0,1,1.74.68,7.19,7.19,0,0,1,3.17,5.68c.06,3.21-2.34,2.62-3.77,3.54s-2,3.61,0,6.08c.52.64.94-.07.46-.79-2.16-3.2.74-4.31,1.5-4.58a4.47,4.47,0,0,0,1.5-.65A3.4,3.4,0,0,0,56.3,66,9.47,9.47,0,0,0,53.2,58.64Z"/><path class="cls-6" d="M53.08,77.42a3,3,0,0,0-1.29-1.56c-.45-.2-1.1-.11-1.25,1A3,3,0,0,0,52.23,80C53.24,80.29,53.64,78.83,53.08,77.42Zm-.8,1.33c-.29.15-.83-.33-1-.87a.91.91,0,0,1,.1-.76c.16-.18.58-.09.83.28S52.57,78.6,52.28,78.75Z"/><path class="cls-1" d="M11.42,18.14c-2.4.13-4.1,1.94-5.19,4.41-1.57,3.6-.35,4.95-1.36,7.29s-.74,2.95-1.16,4.87.08,2.25.75,2.91-.34,1,4.12,3.67a9,9,0,0,0,4.92,1.49l2-3.66s.6.08-1.31-2.08a9.38,9.38,0,0,0-3.91-2.94,10.79,10.79,0,0,0,2.63-5.24C13.46,24.24,13,19,11.42,18.14Z"/><path class="cls-8" d="M15.49,39.12s-1.17-.5-2,1a2.52,2.52,0,0,0,0,2.65,4.14,4.14,0,0,1,2.18.92c1.37,1.23,2.92,3.48,4.15,4.24,1.79,1.11,2.41,0,2.69-1.15s-.59-2.07-1.36-2.81-1.34-1.44-1-1.61,1.23.46,2,.21.53-.84-.71-1.06c-.63-.11-.87-.57-2.06-.85-.92-.22-1.25.22-1.53,0A25.12,25.12,0,0,1,15.49,39.12Z"/><path class="cls-15" d="M91.65,56.1c-.52-.84-2-1.28-2.47-2.13-1.82-6.77-4.74-5.11-6.85-3.81a.29.29,0,0,0-.11.4.46.46,0,0,0-.09.39c.67,3.59,1.25,8.36,4.44,10.69,1.4,1,6.4,2.86,6.33.06A12.49,12.49,0,0,0,91.65,56.1Z"/><path class="cls-4" d="M74.36,121.78c-1.6.63-2.06,1.21-1.63,2.23a5.11,5.11,0,0,0,3.67,2.74c2.16.45,3.77,3.42,6.07,1,.58-.6.07-2.2-.14-3,0-.59-1-2.43-.91-4-2.27.86-2.53.34-3.14.74.1.54.2,1.09.35,1.62C77.81,122.86,75.43,121.35,74.36,121.78Z"/><path class="cls-2" d="M82.35,124.48s-1.34.48-2.21.76a4.79,4.79,0,0,1-4.53-1.16c-1.23-1.19.66-2,.66-2s-1.69-1.94-3.69-1.1c-.93.39-1.48,2.43-1,3.34a5.19,5.19,0,0,0,2.63,2.23,16.73,16.73,0,0,1,3.35,1.23c1.25.76,3.38,2.06,4.8.68S82.35,124.48,82.35,124.48Z"/><path class="cls-8" d="M95,123a39,39,0,0,1-1,4.75c-.26.77-.33,1.23-1.07,1.47-1.54.09-1.61.36-2,1.13s1.86,2,3.35,1.84c.39,0,2.18-.1,2.76-1,.86-1.39-.07-2.6.44-4.2.59-1.79,2.92-1.72,2.22-3.63a19.7,19.7,0,0,0-1.12-2.2,11.06,11.06,0,0,1-.64-2.67c-1.64.76-3.1.62-3.92.94A23.27,23.27,0,0,1,95,123Z"/><path class="cls-2" d="M96.5,130.46c.19-1.27.19-3.92.8-4.91a6.8,6.8,0,0,1,3-2.45,7.3,7.3,0,0,0-1.76-2s-2.37,1.68-2.65,3.92-.26,5.09-1.84,5.28-.87-1.25-.87-1.25-2.62-1.27-2.92,1.28c-.1.88.28,1.6,1.81,2.31a5.3,5.3,0,0,0,2.55.5A3.37,3.37,0,0,0,96.5,130.46Z"/><path class="cls-9" d="M98.16,127.4c.18-1.28,3.52-2,2.2-4.21l-.06-.09a6.8,6.8,0,0,0-3,2.45c-.61,1-.61,3.64-.8,4.91a3.37,3.37,0,0,1-1.88,2.67,3.93,3.93,0,0,0,2.38-.94C98.42,131,98,128.69,98.16,127.4Z"/><path class="cls-9" d="M88.87,72.69c3.9,5.06,9.28,12.47,3.4,16.6a13.74,13.74,0,0,1,.24,11.58c1.46,1,2.6,3.44,3.13,5.47.92,3.52,2.56,12.18,2.49,13.35a5.44,5.44,0,0,0-3.51,1.61c-1.62-3.36-3.85-8.43-5.79-11.6a20.14,20.14,0,0,1-2.88-7,2.33,2.33,0,0,1-.71-2.56c-1.56-2.05-2.19-5.11-2.52-7.5s0-4-1.48-6a14.21,14.21,0,0,1-2.32-3.5,22.74,22.74,0,0,1-1.14-4.36A14.13,14.13,0,0,0,88.87,72.69Z"/><path class="cls-2" d="M70.73,101.51c-.66-3,.27-7.79.72-10.31a55.13,55.13,0,0,1,4.28-14c1.71,2.2,6.7,3.34,10.12,2.43,2.27,5,2.67,12.36-3.64,13.52a10.9,10.9,0,0,1-4.51,9.74c1.91,2.92,3.1,2.84,3.64,7.48a118.46,118.46,0,0,1,.29,12c-1.27-.09-1.85-.27-3,.76-2.58-3.36-6.83-13.5-7.36-18.42A2.75,2.75,0,0,1,70.73,101.51Z"/><path class="cls-8" d="M52.23,64.13c0-.76.56-.91,1.54-.47,1.47.67,4.11,3.2,4.15,1.51,0-.43-.58-.85-.92-1.27-.19-.23-.28-.95.42-.65a3.67,3.67,0,0,1,1.79,1.69A6.24,6.24,0,0,1,60,66.58a2.89,2.89,0,0,0,1.13,1.88c.33.16-.08,1.82-.94,1.81a11.81,11.81,0,0,1-3.9-1.18,9.5,9.5,0,0,1-3.08-2.23A3.51,3.51,0,0,1,52.23,64.13Z"/><path class="cls-8" d="M84.49,52.15a.57.57,0,0,0-.41-.41c-2.85-.79-3.52-2.33-4-4.91a.59.59,0,0,0-.86-.35,18,18,0,0,1-4.77,2.08c1.6,4.77-1.3,5.79-2.55,7.69-.32.48,3,2.88,4.74,2.63A11.05,11.05,0,0,0,81,57.35C82.42,56.43,84.91,54.11,84.49,52.15Z"/><path class="cls-8" d="M81.19,41.21c-.26-2.46-2.27-5.73-5-5.52S71.45,40.07,71.23,42c-.38,3.29-.09,9.51,5.12,7.51C80.4,48,81.59,44.87,81.19,41.21Z"/><path class="cls-3" d="M70.21,61.18c-.17-1.2-.51-2.51.21-3.84a10.21,10.21,0,0,1,2.85-2.67c2.18-.55,4.51,1.29,6.87-.64,1.68-1.38,1.58-3,1.89-3.25,2.23-1.7,3.48-.52,4.61,1.11,2.63,3.79,2,8.36,1,12.54-.75,3.07,2.23,8.71,3.78,11.13a9.33,9.33,0,0,1-5.18,4.92c-2.24,1-9.78,2.36-11.64-.74a26.15,26.15,0,0,0,.06-6.7,6.25,6.25,0,0,0-1.48-3.42c-.67-.78-3.34-2.22-3.62-3.62C69.24,64.44,70.44,62.84,70.21,61.18Z"/><path class="cls-15" d="M83.07,49.57a3.88,3.88,0,0,1,0,3.08,4.92,4.92,0,0,1-4.18,2.58,39.67,39.67,0,0,1-6-.29,1.47,1.47,0,0,1,.94-1.61c1.17-.47,4.81.2,6.27-.68s1.39-1.89,1.9-2.74S83.07,49.57,83.07,49.57Z"/><path class="cls-9" d="M70.46,37.29c-.07-1.61,1.41-3.1,4.23-2a3.64,3.64,0,0,1,3.19-.47,3.14,3.14,0,0,1,.48-.33,3.64,3.64,0,0,1,3.56.31,5.82,5.82,0,0,1,2.84,5.65,2.66,2.66,0,0,1,1.41,3.93c1.18,1.27,2,3.16,1.08,4.72A3.32,3.32,0,0,1,83,50.34a2.79,2.79,0,0,1-1.15,1.75,3.86,3.86,0,0,1-3.47.08c-.44.56-1.53,2.49-4.24.7-1.38-.91-1.33-3.08-.39-4.5a2.19,2.19,0,0,1-.61-3,6.75,6.75,0,0,1-1.27-4,3.78,3.78,0,0,1-3.2-2.39C68.48,38,69.22,37.22,70.46,37.29Z"/><path class="cls-15" d="M61.72,68.28c1.36-.11,3.61,1.59,4.85,2.32,0-2.83,1-5.45,1.77-5.81-.51-1.72-.69-6.41,3.08-8.69,2.65.41,3.82,4,3.91,6.07.13,2.85-.25,6-2,6.42.58,2.73-2.8,5.28-3.83,6.61-.28.36-.7,1.3-1.77,1.26a8.14,8.14,0,0,1-2.07-.14c-1.8-.32-4.79-3.92-5.91-5.22C58.85,70,60,68.42,61.72,68.28Z"/><path class="cls-3" d="M61.72,68.28l-1.52-1s-.63-.14-1.43,1.09-.38,1.54-.38,1.54l1.36,1.17a3.56,3.56,0,0,1,.6-1.65A5.06,5.06,0,0,1,61.72,68.28Z"/></g></g></svg>