<svg xmlns="http://www.w3.org/2000/svg" viewBox="0 0 76.32 191.07"><defs><style>.cls-1{fill:#e0d2d1;}.cls-2{fill:#ffc9b6;}.cls-3{fill:#f4ebea;}.cls-4{fill:#2c1d1b;}.cls-5{fill:#3f2a28;}.cls-6{fill:#f9bba7;}.cls-7{fill:#eddcda;}.cls-8{fill:#ffb9a4;}.cls-9{fill:#ef4335;}.cls-10{fill:#ff5e4c;}.cls-11{fill:#aa8887;}.cls-12{fill:#c6a8a5;}.cls-13{fill:#dec9c5;}.cls-14{fill:#8da3ff;}.cls-15{fill:#778dfd;}.cls-16{fill:#aec1ff;}.cls-16,.cls-18{opacity:0.5;}.cls-17{fill:#fff;}.cls-18{fill:#5e79e6;}.cls-19{fill:#563c3b;}</style></defs><title>mision-vector</title><g id="Capa_2" data-name="Capa 2"><g id="Layer_1" data-name="Layer 1"><path class="cls-1" d="M64,94.05c-1.88-1.69-3.94.44-5.59,1.22a45.21,45.21,0,0,0-6.67,4,34.58,34.58,0,0,1-5.66-6,3.46,3.46,0,0,0-4.5-1.3,3.32,3.32,0,0,0-1.92,3.25c.07,1.27,1,1.64,2.09,3.21a30.62,30.62,0,0,0,3.66,4.74A28.42,28.42,0,0,0,50.2,107c1.22.89,4.44-.59,6.53-1,3.33-.67,6,.13,8.24-3.3C66.51,100.32,66.05,95.85,64,94.05Z"/><path class="cls-2" d="M42.82,92.19A23.13,23.13,0,0,1,40.26,86a.38.38,0,0,0-.68-.09,3.08,3.08,0,0,0-.4,2.33c-1.8-.56-2.93-1.56-4.68-2.27a4,4,0,0,0-2.79.3c-1.42.76-1.4,2.16-.39,3.45.72.92,2.58,1.39,3.61,1.62,2.3.53,3.18,1.43,5.12,2.77C41.43,94.72,42.83,93.13,42.82,92.19Z"/><path class="cls-3" d="M42.36,91.35s.25,1.1-1.25,2.08a2.05,2.05,0,0,1-1.86.15,6.42,6.42,0,0,0,.86,1.53,2.19,2.19,0,0,0,3-.37c1.19-1.23.6-1.85.33-2.38A3.47,3.47,0,0,0,42.36,91.35Z"/><path class="cls-4" d="M56.44,119.46s-3.66,9.34-4.23,13.12-1.7,9.49-2.38,14.25a65.58,65.58,0,0,0-.36,14c.13,1.85.8,6.67.45,9.29.4,1.7,4.39,1.91,4.86-.07.3-1.22,3.36-12.1,3.67-15.52a15.89,15.89,0,0,0-.5-5.87s5-10.67,6.73-14.87.56-9.4.56-9.4Z"/><path class="cls-4" d="M54.71,169.65a16.21,16.21,0,0,0,.49,2.3,6.34,6.34,0,0,1-.08,2.82,1.7,1.7,0,0,1-1.35.93,4.24,4.24,0,0,1-1.83,0,13.37,13.37,0,0,1-2.31,2.13,10.67,10.67,0,0,1-5,1.52c-1.27-.19-2-1.18-1.85-1.81a7.85,7.85,0,0,1,2.81-3.16,25,25,0,0,0,3.14-2.75,15.49,15.49,0,0,0,1.56-2Z"/><path class="cls-4" d="M73.5,179.23a16.35,16.35,0,0,1,.59,4,2.91,2.91,0,0,1-.87,2.29.87.87,0,0,1-1,.28s-.2,3-1.62,4.2a6,6,0,0,1-5.17.88c-1.18-.43-.41-2.58.75-4.68s2.63-4.36,3-6.26C72.06,179.5,73.5,179.23,73.5,179.23Z"/><path class="cls-5" d="M69.55,123.33a27.4,27.4,0,0,1,3.22,7c1,3.14.84,10.65.84,10.65s.26,7.41-.21,10A17.35,17.35,0,0,0,73,154a41.48,41.48,0,0,1,1.74,13.39c-.32,7.25-.91,12.46-.91,12.46a2.5,2.5,0,0,1-2.27,1.56,4.07,4.07,0,0,1-2.94-1s-3.11-15.37-4.26-18.87A41.46,41.46,0,0,1,62.74,154l-2.36-17.25s-4.66-3-2.27-10.72C59.61,121.24,69.55,123.33,69.55,123.33Z"/><path class="cls-3" d="M74.88,103.72c-2.32-4.6-8.54-7.91-13.53-7.19C59,98.44,57.85,99.71,57,102a14.75,14.75,0,0,0-.87,6.66c.76,6.49-.78,12.8-1.34,15.27,1.8,3.39,5.14,4.94,9,5.61,2.1.37,7.27-.94,7.83-2.28a63.52,63.52,0,0,1,3.68-14.44A12.58,12.58,0,0,0,74.88,103.72Z"/><path class="cls-6" d="M62.79,93.68s.48,3.16-.68,4.26a2.39,2.39,0,0,0,1.16,4.1c2.81.92,4.79-1.11,6.55-2.51-.76-1.6-1.13-1.59-1.13-6.1C68.69,89.77,62.79,93.68,62.79,93.68Z"/><path class="cls-7" d="M68.79,96.43a6.35,6.35,0,0,1-2,3c-1.75,1.32-5.05,1.54-5.05,2.44,1,0,1.14.05,1.14.74,0,1.3.39,1.6.39,1.6s2.38-.68,4.09-1.4c2.15-.89,3.13-3.87,3.13-3.87S70.07,96.31,68.79,96.43Z"/><path class="cls-7" d="M61.74,96.53s-1.39,1.52-2,2.21-.25,2-.55,2.56a7.55,7.55,0,0,0-.43,1s1.24-.25,1.49-1,1.48.58,1.48.58l.88-.72s-1.33-.85-.88-1.76,1.19-2.1,1.19-2.1Z"/><path class="cls-2" d="M67.89,85.88c-1.75-1.92-6.34-2.72-8,.11-1.24,2.12-1.29,5.91-.95,7.65.7,3.65,3.7,5.82,7.15,3S70.89,89.21,67.89,85.88Z"/><path class="cls-4" d="M71.75,89.37c.3-1.85-.7-3.21-2.37-3.25a3.52,3.52,0,0,0-2-3.46c-2.17-1.13-4.74-.32-7,.31-.64-.3-2.21-1.25-2.46-.44a2,2,0,0,0,.49,1.64c-.64-.12-1.9-.66-2.46-.24-1.32,1,1,2.8,2.13,3.34a7.15,7.15,0,0,0,2.83.64,3.26,3.26,0,0,0-.24.4.45.45,0,0,0,.16.61,3.79,3.79,0,0,0,3.5.23,3,3,0,0,0,1.05,2.41,3.1,3.1,0,0,0,1.61.49,4.18,4.18,0,0,0,1.65,2.61A15.51,15.51,0,0,0,71.75,89.37Z"/><path class="cls-2" d="M66.08,92.4s1-1.53,1.9-.37S67,94.32,67,94.32Z"/><path class="cls-8" d="M20,176.78c-.34-.31-.51-2.64-.59-5,.43-3.43-.64-9.25-.64-12.81a98.08,98.08,0,0,1,.78-10.21c.36-2.76.88-5.18,1.14-8a34.67,34.67,0,0,0,.66-11.42,29,29,0,0,1-9.84,1.43,26.82,26.82,0,0,0,.2,8.48,31.73,31.73,0,0,0,1.46,4.87,12.08,12.08,0,0,1,.94,3.57c.06,1.43-1.27,3.72-1.53,5.07-.81,4.09.89,6.59,2.08,11.92a28.54,28.54,0,0,1,.63,4.5,5.16,5.16,0,0,0-.82,1.16c-.73,1.37.42,2.56,1,3.66s.25,4.29,1,4.8,3.09,2,4.7,1.31C22.26,179.66,20.93,177.67,20,176.78Z"/><path class="cls-6" d="M35.63,101.9a4.23,4.23,0,0,1-2.76,1.9c-.49-.07.16-.91.49-1.9s-.57-.72-1.38.42-.41,2.35-1,2.76a25.45,25.45,0,0,1-5.5,1.76c-.69.13-2.14.5-3,.76-1.07-1.74-3.87-6.36-5.38-9.63C15.36,94.22,11,96.49,11,96.49l3.16,8.57S19,109.82,20.84,112c1,1.17,2.18.79,4.45.3S31,108.55,33,107.11c1.23-.85,4.8-2,5-4.47S36.69,100.53,35.63,101.9Z"/><path class="cls-9" d="M14.16,172.43a50.39,50.39,0,0,1,1.68,6.63c.09,1,1.74,2.32,4.56,2.19s1.79-1.47,1.14-2.51c-.3-.48-.59-.86-.87-1.26a2.14,2.14,0,0,1-1.62,1,1.84,1.84,0,0,1-2.27-1.15c-.61-1.12-1.52-4.46-1.89-5.41a4.63,4.63,0,0,1,.35-2.64h0C14.47,170.18,13.62,170.78,14.16,172.43Z"/><path class="cls-9" d="M14.06,172V177c0,.09.16.16.36.16s.36-.07.36-.16v-3.8Z"/><path class="cls-2" d="M10.67,180.38c-.31-.35-.23-2.68-.07-5,.79-3.37.34-9.27.71-12.81a97.52,97.52,0,0,1,1.85-10.07c.65-2.71,1.42-5.06,2-7.8A34.58,34.58,0,0,0,17,133.42a29,29,0,0,1-9.94.39,27,27,0,0,0-.69,8.45,31.59,31.59,0,0,0,.94,5,11.89,11.89,0,0,1,.56,3.65c-.09,1.42-1.33,3.91-1.71,5.24-1.33,4.67-.15,6.28.48,11.71a27.5,27.5,0,0,1,.14,4.54,5.5,5.5,0,0,0-.93,1.06c-.87,1.29.15,2.59.62,3.75s-.2,4.29.45,4.88,2.86,2.35,4.53,1.79C12.66,183.49,11.55,181.37,10.67,180.38Z"/><path class="cls-9" d="M5.37,175.45a49.89,49.89,0,0,1,1,6.76c0,1,1.49,2.49,4.31,2.67s1.94-1.28,1.4-2.38c-.25-.51-.5-.92-.73-1.35a2.14,2.14,0,0,1-1.72.8,1.84,1.84,0,0,1-2.14-1.38C7,179.4,6.42,176,6.15,175a4.62,4.62,0,0,1,.62-2.59h0C5.91,173.24,5,173.75,5.37,175.45Z"/><path class="cls-9" d="M5.31,175.05,4.79,180c0,.09.14.18.34.2s.37,0,.38-.12l.4-3.78Z"/><path class="cls-10" d="M20.73,122.7c-1.09-2.12-2.5-3.54-2.48-5.08a26.81,26.81,0,0,0-.47-7c.61-.84,2.64-1.85,1.63-4.63a14,14,0,0,0-2.24-3.51,15.28,15.28,0,0,0-3.09-3.31c-1.2-.82-1.65-.33-2.85.19A33.57,33.57,0,0,0,4,102.75,12.89,12.89,0,0,0,2,104.22c-.93,1.09-.69,2-.69,3.09,0,.07,3.31,6,4.92,9.76.58,1.33,1.32,2.09.41,3.74-1.17,2.14-2.2,3-3.24,7.25C1,137.92,6.6,151.42,6.6,151.42a8.9,8.9,0,0,0,6.22,1.89c5.17-.32,7.27-2.66,7.27-2.66a100.77,100.77,0,0,0,2-16C22.16,130.1,22.11,125.36,20.73,122.7Z"/><path class="cls-4" d="M15.28,98.53a3.09,3.09,0,0,0-.6-2.41c-.68-.88-2.16-1.64-3.23-1l0,0A2,2,0,0,0,10,97.06c-.67,2,1.42,3.88,3.28,3.58a2.54,2.54,0,0,0,.14,1.72,1.42,1.42,0,0,0,2.26.54,3.12,3.12,0,0,0,1-3.08A1.91,1.91,0,0,0,15.28,98.53Z"/><path class="cls-8" d="M8.4,103.13a3.11,3.11,0,0,0,2.8-.75,2.46,2.46,0,0,0,.86-1.75,2.43,2.43,0,0,1-.94-1.85c0-.63.14-1.27.15-1.91a11.23,11.23,0,0,0-2.86-1.19c-.58-.09-1.5-1.63-2-1.88a10.38,10.38,0,0,1,.07,4.14,12.21,12.21,0,0,1-.91,3.87A7.37,7.37,0,0,0,8.4,103.13Z"/><path class="cls-2" d="M14.83,91.16c-.18-1.46-.64-3.26-1.84-4.22a4.44,4.44,0,0,0-3.78-.77c-2.21.33-3.92,3.72-3.3,6.54.57,2.61,2.22,5.82,5.2,6.14C14.43,99.21,15.09,93.36,14.83,91.16Z"/><path class="cls-2" d="M9,92.23s-1.2-1.34-1.72-.29.47,2.86,1.31,2.67S9,92.23,9,92.23Z"/><path class="cls-5" d="M16.14,84.91a5.49,5.49,0,0,0-6.42-.53c-.84-1-2.34-.85-3.53-.29A3.32,3.32,0,0,0,4.36,87.4c-2.37.12-3.54,3.66-2,5.34a2.85,2.85,0,0,0-1.08,2.44,3.55,3.55,0,0,0,2.62,3C3,99,2.32,99.94,2.81,101.26c.63,1.69,2.49,2.09,4.09,2.23v0a2.5,2.5,0,0,0,.85,2.73,2.29,2.29,0,0,0,3,.14,1.93,1.93,0,0,0,.59-2.77,2.4,2.4,0,0,0-1.57-1,2.1,2.1,0,0,0-2-3,2.48,2.48,0,0,0-.09-2.36,4.81,4.81,0,0,0,1.8-3.71A2.35,2.35,0,0,0,9,92.16a6.26,6.26,0,0,0,3.48-4,4.49,4.49,0,0,1,1.83,1.45,5.64,5.64,0,0,1,.53,2.77C18.16,91.14,18.21,86.92,16.14,84.91Z"/><path class="cls-9" d="M6.6,117.76l.08,3s4.17,1.91,7.45,1.46C18.08,121.72,19,120,19,120l-.77-3.7s-.33,1.37-3.76,1.7A42.48,42.48,0,0,1,6.6,117.76Z"/><path class="cls-9" d="M9.39,133.06s.71,3.8,3.9,4.61a8,8,0,0,0,5,0,18.71,18.71,0,0,1-5.08-1.51A35.7,35.7,0,0,1,9.39,133.06Z"/><path class="cls-9" d="M13.34,133.06a6.36,6.36,0,0,0,3.65-1.9,10.69,10.69,0,0,0,2.05-3.1s.23,3.25-2,4.54A3.91,3.91,0,0,1,13.34,133.06Z"/><path class="cls-9" d="M10.37,139.6s1.91,3.88,4.42,5.47a5.32,5.32,0,0,0,3.12.84,21.66,21.66,0,0,0-3.1-2.43A35.25,35.25,0,0,1,10.37,139.6Z"/><path class="cls-9" d="M8.79,112.43s2.79.55,4,0A34.24,34.24,0,0,0,16,110.68a3.93,3.93,0,0,1-3.19,2.86A4.66,4.66,0,0,1,8.79,112.43Z"/><path class="cls-11" d="M36.05,100.28c-9.95,0-18,4.29-18,9.58s8.07,9.59,18,9.59,18-4.3,18-9.59S46,100.28,36.05,100.28Z"/><path class="cls-12" d="M36.05,97.83c-9.95,0-18,4.3-18,9.59s8.07,9.58,18,9.58,18-4.29,18-9.58S46,97.83,36.05,97.83Z"/><path class="cls-11" d="M36.05,94.91c-9.95,0-18,4.3-18,9.59s8.07,9.58,18,9.58,18-4.29,18-9.58S46,94.91,36.05,94.91Z"/><path class="cls-12" d="M36.05,92.47c-9.95,0-18,4.29-18,9.59s8.07,9.58,18,9.58,18-4.29,18-9.58S46,92.47,36.05,92.47Z"/><path class="cls-11" d="M36.05,90c-9.95,0-18,4.29-18,9.58s8.07,9.59,18,9.59,18-4.3,18-9.59S46,90,36.05,90Z"/><path class="cls-12" d="M36.05,87.54c-9.95,0-18,4.29-18,9.59s8.07,9.58,18,9.58,18-4.29,18-9.58S46,87.54,36.05,87.54Z"/><path class="cls-11" d="M36.05,84.62c-9.95,0-18,4.3-18,9.59s8.07,9.58,18,9.58,18-4.29,18-9.58S46,84.62,36.05,84.62Z"/><path class="cls-12" d="M36.05,82.18c-9.95,0-18,4.29-18,9.59s8.07,9.58,18,9.58,18-4.29,18-9.58S46,82.18,36.05,82.18Z"/><path class="cls-13" d="M36.05,79.18c-9.95,0-18,4.29-18,9.59s8.07,9.58,18,9.58,18-4.29,18-9.58S46,79.18,36.05,79.18Z"/><path class="cls-11" d="M36.05,78c-9,0-16.3,3.88-16.3,8.67s7.29,8.67,16.3,8.67,16.3-3.89,16.3-8.67S45.05,78,36.05,78Z"/><path class="cls-14" d="M68.54,32.37a32.37,32.37,0,0,0-64.74,0A37.67,37.67,0,0,0,6.74,45.86c3,7.85,11.37,18.23,12.54,33.62s16.89,14,16.89,14,15.65,1.38,16.82-14S62.6,53.71,65.6,45.86A37.67,37.67,0,0,0,68.54,32.37Z"/><path class="cls-15" d="M59.13,9.55A33.93,33.93,0,0,1,8.07,48.88C11.69,56.34,18.25,66,19.28,79.48c1.18,15.39,16.89,14,16.89,14s15.65,1.38,16.82-14S62.6,53.71,65.6,45.86a37.67,37.67,0,0,0,2.94-13.49A32.26,32.26,0,0,0,59.13,9.55Z"/><ellipse class="cls-16" cx="26.83" cy="17.22" rx="17.79" ry="12.9" transform="translate(-5.01 15.72) rotate(-30)"/><path class="cls-17" d="M33.22,7.2c-3.52-1-8.38-.14-9.66,4.68-.94,3.5,6,2.45,8,1.83,1.21-.37,2.93-1.25,3.52-2.5A2.73,2.73,0,0,0,33.22,7.2Z"/><path class="cls-17" d="M20.87,16.75a2,2,0,0,0-2.33-1.84c-2,.24-3.74,2.34-4.06,4.42a4.45,4.45,0,0,0,.32,2.74c1.15,1.59,3.71-.79,4.58-1.89C20.14,19.23,21.05,18,20.87,16.75Z"/><path class="cls-18" d="M55.77,52.17c-1.8,2.45-5.45,7.22-8.41,8.67-6.14,3-9,1.58-13.4,3.09a.78.78,0,0,0,0,1.5c2.95.93,6.89,1.85,9.25,4,1.1,1,3.23,3.1,4.16,3.1,2.85,0,4.8-5.08,6-7.86,2.21-5.25,7.09-12.26,7.78-14.59C62.1,46.76,59.66,46.87,55.77,52.17Z"/><path class="cls-5" d="M43.66,83.27a14.54,14.54,0,0,0-7.61-1.9,14.58,14.58,0,0,0-7.62,1.9H26.12v3.39c0,2.91,4.44,5.28,9.93,5.28S46,89.57,46,86.66V83.27Z"/><path class="cls-19" d="M36.05,78c-5.49,0-9.93,2.36-9.93,5.28s4.44,5.28,9.93,5.28S46,86.19,46,83.27,41.53,78,36.05,78Z"/><path class="cls-5" d="M36.05,78.44c-3.89,0-7,1.67-7,3.74s3.15,3.75,7,3.75,7-1.68,7-3.75S39.93,78.44,36.05,78.44Z"/><path class="cls-5" d="M32.85,81.12c-4.09-.36-5-7-5.71-10.11-.37-1.59-1.71-6.52-2.77-11.49s-2-10-2.5-12.38c1.14-2.39.61-4.61-1.73-5.17a2.75,2.75,0,0,0-2.5,4.37,2.7,2.7,0,0,0,3,1.36c1.28,7.11,4.06,18.55,5.08,22.94,1.07,4.58,1.75,11,7,11.45C33.67,82.17,33.76,81.2,32.85,81.12Z"/><path class="cls-5" d="M39.82,81.12c4.1-.36,5-7,5.71-10.11.38-1.59,1.72-6.52,2.78-11.49s2-10,2.5-12.38c-1.15-2.39-.61-4.61,1.72-5.17A2.74,2.74,0,0,1,55,46.34a2.7,2.7,0,0,1-3,1.36C50.73,54.81,48,66.25,46.93,70.64c-1.06,4.58-1.74,11-7,11.45C39,82.17,38.91,81.2,39.82,81.12Z"/><path class="cls-7" d="M74.47,103c-1.88-1.68-3.94.45-5.59,1.23a44.7,44.7,0,0,0-6.67,4,34.2,34.2,0,0,1-5.66-6,3.45,3.45,0,0,0-4.5-1.3,3.31,3.31,0,0,0-1.92,3.25c.07,1.27,1,1.64,2.09,3.21a30.62,30.62,0,0,0,3.66,4.74,28.42,28.42,0,0,0,4.75,3.8c1.22.89,4.44-.59,6.53-1,3.33-.67,6,.12,8.24-3.31C76.94,109.27,76.48,104.79,74.47,103Z"/><path class="cls-2" d="M53.43,101.44a22.81,22.81,0,0,1-2.56-6.16.38.38,0,0,0-.68-.08,3.05,3.05,0,0,0-.4,2.32C48,97,46.86,96,45.11,95.25a4,4,0,0,0-2.8.3c-1.41.76-1.4,2.16-.38,3.45.72.92,2.58,1.39,3.61,1.62,2.3.53,3.17,1.43,5.12,2.78C52,104,53.44,102.39,53.43,101.44Z"/><path class="cls-3" d="M53,100.61s.25,1.09-1.25,2.07a2.05,2.05,0,0,1-1.86.15,6.42,6.42,0,0,0,.86,1.53,2.19,2.19,0,0,0,3-.37c1.18-1.22.6-1.85.33-2.38A3.39,3.39,0,0,0,53,100.61Z"/><path class="cls-2" d="M24.38,104.29c-.3-1.07-.83-1.55-1.88-1a14.41,14.41,0,0,0-3.46,3,7.08,7.08,0,0,1,0-1.75.35.35,0,0,0-.65-.23,7.05,7.05,0,0,0-.7,5,12.26,12.26,0,0,1-4.35,3.5,13.88,13.88,0,0,0-4.25,2.5A19.11,19.11,0,0,0,6.83,111c-.22-.77-.26-2.4-.55-3.19-.65-1.7-2.42-4-4.43-3.56C.48,105,0,106.76,0,108.21c0,2.86,1.87,3.29,3.33,5.41,1.06,1.53,1.17,3.12,3.5,5.42a2,2,0,0,0,2.26.5c1.35-.39,1.81.22,3.19-.2,1.86-.56,6-6,7.15-7.79a14,14,0,0,1,1.79-2.27c.65-.49,1.36-.92,2-1.46A3.16,3.16,0,0,0,24.38,104.29Z"/></g></g></svg>