<svg xmlns="http://www.w3.org/2000/svg" viewBox="0 0 171.6 174.15"><defs><style>.cls-1{fill:#eddcda;}.cls-2{fill:#2c1d1b;}.cls-3{fill:#3f2a28;}.cls-4{fill:#ffb65f;}.cls-5{fill:#f9bba7;}.cls-6{fill:#ffc9b6;}.cls-7{fill:#f98f38;}.cls-8{fill:#dec9c5;}.cls-9{fill:#f4ebea;}.cls-10,.cls-27{fill:#ff5e4c;}.cls-11{fill:#ef4335;}.cls-12{fill:#ff7469;}.cls-13{fill:#ffb9a4;}.cls-14{fill:#f9f4f4;}.cls-15{fill:#74cace;}.cls-16{fill:#53b7b7;}.cls-17{fill:#5e79e6;}.cls-18{fill:#8da3ff;}.cls-19{fill:#778dfd;}.cls-20{fill:#fff;}.cls-21{fill:#3f2a2a;}.cls-22{fill:#513937;}.cls-23{fill:#5e4443;}.cls-24{fill:#472f2e;}.cls-25{fill:#42a8a5;}.cls-26{fill:#8de0e0;}.cls-27{opacity:0.5;}.cls-28{fill:#ff908a;}</style></defs><title>Recurso 6</title><g id="Capa_2" data-name="Capa 2"><g id="Layer_1" data-name="Layer 1"><path class="cls-1" d="M118.24,12.32a11.86,11.86,0,0,0-3.51,2.78c-1.21,1.59-2,4.24-1.47,5.85-1.44,4.1-2.08,5.1-1.9,7.85-2.55-1.75-7.17-.84-7.17-.84a4.55,4.55,0,0,1,0,2.1A3.36,3.36,0,0,1,103,32a8.72,8.72,0,0,0,5.29,2.9c2.9.3,5.22.69,5.88,0,1.4-1.38,8.33-19.79,8.33-19.79Z"/><path class="cls-2" d="M114.4,37.71s-3.69,9.42-4.27,13.24-1.72,9.58-2.41,14.39a66.81,66.81,0,0,0-.36,14.18c.13,1.86.81,6.73.45,9.38.41,1.72,4.44,1.93,4.92-.07.29-1.24,3.39-12.21,3.7-15.67a16.15,16.15,0,0,0-.5-5.92s5-10.78,6.79-15,.57-9.49.57-9.49Z"/><path class="cls-2" d="M112.66,88.37a14.94,14.94,0,0,0,.49,2.33,6.44,6.44,0,0,1-.08,2.84,1.73,1.73,0,0,1-1.36.95,4.27,4.27,0,0,1-1.86,0,13.33,13.33,0,0,1-2.32,2.15,10.73,10.73,0,0,1-5,1.54c-1.27-.19-2-1.19-1.86-1.83a7.92,7.92,0,0,1,2.84-3.19,24.7,24.7,0,0,0,3.16-2.78,15.1,15.1,0,0,0,1.58-2Z"/><path class="cls-2" d="M131.62,98a16.56,16.56,0,0,1,.6,4,3,3,0,0,1-.88,2.31.88.88,0,0,1-1,.28s-.2,3-1.64,4.24a6.09,6.09,0,0,1-5.22.89c-1.19-.44-.4-2.6.76-4.72s2.66-4.41,3-6.32C130.17,98.32,131.62,98,131.62,98Z"/><path class="cls-3" d="M127.64,41.61a28.07,28.07,0,0,1,3.25,7.06c1,3.16.85,10.75.85,10.75s.26,7.48-.22,10.06a17.75,17.75,0,0,0-.44,3.11,41.77,41.77,0,0,1,1.75,13.52c-.32,7.33-.92,12.58-.92,12.58a2.5,2.5,0,0,1-2.29,1.58,4.11,4.11,0,0,1-3-1s-3.14-15.52-4.31-19.05a42.81,42.81,0,0,1-1.59-7.61l-2.38-17.42s-4.71-3.07-2.29-10.82C117.6,39.5,127.64,41.61,127.64,41.61Z"/><path class="cls-4" d="M133.74,21.8c-2.33-4.64-9.34-8-14.38-7.24-2.42,1.92-3.54,3.21-4.41,5.51a14.91,14.91,0,0,0-.87,6.73c.76,6.55-.79,12.92-1.36,15.42a18.32,18.32,0,0,0,10.15,5.29c2.12.37,3.67-.43,5.75-1.2a.71.71,0,0,0,.48-.63c.7-5.29,2.52-9.73,4.35-14.68C134.43,28.36,135.07,24.45,133.74,21.8Z"/><path class="cls-5" d="M120.81,11.68s.49,3.19-.68,4.29a2.42,2.42,0,0,0,1.16,4.14c2.84.93,4.85-1.12,6.61-2.53-.76-1.62-1.13-1.61-1.13-6.15C126.77,7.73,120.81,11.68,120.81,11.68Z"/><path class="cls-1" d="M136.52,25.06c-.18-4-4.55-5.72-4.55-5.72s-3.13,2.54-2.67,11.08c.17.8,1.39,1.56,1.75,2.37-.16,3.3.59,4.92,1.84,6.54-1.1.72-3.7,4.91-5.29,7a3.42,3.42,0,0,1,2.28,3.28s6-2.69,9-6.39c1.24-1.51.81-3,1.28-4.59C141.07,35.51,136.67,28.64,136.52,25.06Z"/><path class="cls-1" d="M126.87,14.46a6.44,6.44,0,0,1-2,3c-1.77,1.33-5.1,1.55-5.1,2.46,1,0,1.16.06,1.16.76,0,1.3.38,1.6.38,1.6s2.41-.68,4.14-1.4C127.6,20,128.58,17,128.58,17S128.16,14.33,126.87,14.46Z"/><path class="cls-1" d="M119.75,14.56s-1.41,1.52-2,2.23-.25,2-.55,2.58a8.45,8.45,0,0,0-.44,1s1.26-.26,1.5-1,1.5.58,1.5.58l.89-.73s-1.34-.85-.89-1.77S121,15.33,121,15.33Z"/><path class="cls-6" d="M126,3.8c-1.76-1.94-6.4-2.74-8.06.11-1.25,2.15-1.31,6-1,7.72.72,3.69,3.74,5.89,7.23,3C127.48,12,129,7.16,126,3.8Z"/><path class="cls-2" d="M129.78,6.24c-.29-1.25-1.92-2.9-3.42-2.58A2.91,2.91,0,0,0,124.55.24c-3-.9-5.81,1-8.74,1.62-.83.19-1,.64.39,1.52-.79.07-1.53.51-1.42,1.4a1.21,1.21,0,0,0,1,1.06C115,7,116.17,8,117.27,8.45a6.69,6.69,0,0,0,6-.48c.38,1.71,1.91,3.91,3.48,4.35C128.34,11.18,130.19,8,129.78,6.24Z"/><path class="cls-6" d="M124.13,10.38s1-1.54,1.93-.37-1,2.31-1,2.31Z"/><path class="cls-6" d="M127.55,46.36c-1.35.45-3,3.34-1.91,5.41s2.84,2.22,5,1.75,1-1.32.4-1.5a2.76,2.76,0,0,0-1.53,0,10.47,10.47,0,0,0,.72-2.94C130.22,47.6,129.07,45.86,127.55,46.36Z"/><path class="cls-6" d="M104.61,28.49s-3-3.86-4.34-5.81c-.94-1.34-1.8-1.31-1.8-.65,0,.32.22.56.66,1.26s1.14,1.76,1.14,1.76-.88,2-1.49,3.07.7,1.57,1.31,2.1A9.71,9.71,0,0,0,103.5,32C104.74,32.24,105.66,30.51,104.61,28.49Z"/><path class="cls-7" d="M118.15,42.63c.39,0,2.23,1.58,4.24,1.87a6.21,6.21,0,0,0,4.09-.6,12.29,12.29,0,0,1-4-.31C120.44,43.05,118.15,42.63,118.15,42.63Z"/><path class="cls-8" d="M166.09,105.78c-2.28-1.54-4.7-2.94-7-4.4a22.22,22.22,0,0,0-4.25-2.6,1.36,1.36,0,0,0-1.71.42c-.44.74.08,1.16.68,1.51,1.63.93,3.29,1.83,4.93,2.77,2.45,1.41,4.86,2.88,7.26,4.37Z"/><path class="cls-8" d="M151.27,100.81a1.34,1.34,0,0,0-1.67-.53c-1.53.41-3,1.58-4.42,2.34-3,1.64-6.22,3.18-9.11,5.08l0,1.93q4.64-2.55,9.37-4.9c1.69-.84,3.4-1.63,5.09-2.46C151.12,102,151.66,101.58,151.27,100.81Z"/><path class="cls-8" d="M153.85,84.53c0-2.55.52-13.23.9-16,.37-2.56.85-5.06,1.29-7.58.28-1.54,2.22-9.44-.22-8.23-.93.47-1.5,2-1.87,3.47a55.46,55.46,0,0,0-1.2,6.84,136.62,136.62,0,0,0-.6,21C152.14,84.56,153.85,84.56,153.85,84.53Z"/><path class="cls-9" d="M167.62,77c.26-1.93.72-3.82,1.1-5.73a34.35,34.35,0,0,1,1.88-6.53c.13-.3.27-.6.43-.91-.84-.58-7.47-4.66-10.36-6.15-3.75-2-4.63-2.4-4.95-1.78-1.72,3.36-2.69,9-2.75,12.77,0,.4,0,1,2.12,2.07,4.24,2.09,11.67,6.92,12.42,7.22C167.54,77.72,167.59,77.13,167.62,77Z"/><path class="cls-10" d="M170,64.67c-.14-1.22-14.41-9.05-15.56-8.85-1.89.32-4,9.59-2.08,11.56s12.24,7.91,14.94,8.92a.41.41,0,0,0,.49-.28c.52-2,1-4.11,1.4-6.19C169.51,68.27,170.2,66.27,170,64.67Z"/><path class="cls-11" d="M168.42,63.43c-1.35-1.3-2.66,3.46-2.8,4.12-.51,2.22-1.75,7,.81,8.52a.76.76,0,0,0,1.2-.25,7.28,7.28,0,0,0,.49-2.56l.51-3.1a30.27,30.27,0,0,0,.82-5.33A1.3,1.3,0,0,0,168.42,63.43Z"/><path class="cls-1" d="M166.07,93h1.68s.22-.83.22-.86c0-2.24,1-12.43,1.35-15.15.36-2.56.84-5.06,1.29-7.58.27-1.53,2.22-9.44-.22-8.22-.94.46-1.51,2-1.88,3.47a56.88,56.88,0,0,0-1.19,6.83c-.62,5-1.69,14.6-1.23,19.72C166.08,91.66,166.06,92.67,166.07,93Z"/><path class="cls-1" d="M168.5,106.1c-.18-5-.56-9.92-1.17-14.8,0-.21-.16-.28-.28-.2l-1.16.84a.24.24,0,0,0-.09.15c-.05-.19-.25-.18-.26.07-.36,5.19-.43,10.43-.61,15.64-.08,2.37-1,6.23,2.11,6.2C169.37,114,168.58,108.38,168.5,106.1Z"/><path class="cls-1" d="M134.26,107.67c.18-5,.56-9.92,1.17-14.8,0-.2.16-.27.28-.19l1.16.84a.24.24,0,0,1,.09.15c0-.19.25-.18.26.07.36,5.18.43,10.43.61,15.63.08,2.37,1,6.24-2.12,6.21C133.39,115.55,134.18,110,134.26,107.67Z"/><path class="cls-8" d="M166.59,108.28a1.38,1.38,0,0,0-1.68-.53,23.06,23.06,0,0,0-4.41,2.34c-3,1.65-6.22,3.19-9.11,5.08l0,1.93c3.09-1.69,6.2-3.34,9.36-4.9,1.69-.84,3.41-1.62,5.1-2.46C166.44,109.44,167,109.05,166.59,108.28Z"/><path class="cls-8" d="M149.32,114.92c-2.28-1.55-4.7-3-7-4.4a22,22,0,0,0-4.26-2.61,1.35,1.35,0,0,0-1.7.42c-.44.75.08,1.17.67,1.51,1.64.94,3.3,1.83,4.93,2.77,2.45,1.41,4.87,2.88,7.26,4.38Z"/><path class="cls-1" d="M151.4,101.5l-2-1.66c-.35,5.18-.85,12.26-1,17.45-.08,2.37-1,6.23,2.12,6.2,2.32,0,1.53-5.61,1.45-7.9C151.79,110.91,151.94,106.08,151.4,101.5Z"/><path class="cls-8" d="M168.12,90.91h-1.7l-10.81-6.24a6.32,6.32,0,0,0-5.65.23l-12.6,7.23-2.37.23v2a1,1,0,0,0,0,.24v.21h0A1.82,1.82,0,0,0,136,96l11.54,6.66a6.32,6.32,0,0,0,5.65-.23l13.59-7.81c1-.56,1.43-1.29,1.36-2h0S168.07,91.12,168.12,90.91Z"/><path class="cls-9" d="M147.5,100.45,136,93.79c-1.44-.84-1.26-2.31.41-3.27L150,82.77a6.32,6.32,0,0,1,5.65-.23l11.54,6.66c1.44.83,1.26,2.3-.41,3.26l-13.59,7.75A6.32,6.32,0,0,1,147.5,100.45Z"/><path class="cls-10" d="M143.35,94.47c2.67,1.44,5.73,3.8,8.91,2.77,2.78-.89,5.44-2.86,7.9-4.39a19.62,19.62,0,0,0,4.62-3.6,14.27,14.27,0,0,0-3.37-2.93c-2.64-1.89-9.63-5.37-10.57-5.29a6.51,6.51,0,0,0-1.28.23,32.72,32.72,0,0,0-5,2.07,26.74,26.74,0,0,0-6.19,3.74,7.86,7.86,0,0,0-1.79,1.76C136.66,91.71,141.2,93.31,143.35,94.47Z"/><path class="cls-11" d="M136.62,92.77c1.67,1.23,4.71,2.51,6.23,3.43s4.81,3.24,6.57,3.64a8,8,0,0,0,4.45-.94c2-1,3.94-2.24,5.89-3.37,1.6-.92,3.88-1.74,5.06-3.21a2.34,2.34,0,0,0,0-3.07,19.62,19.62,0,0,1-4.62,3.6c-2.46,1.53-5.12,3.5-7.9,4.39-3.18,1-6.24-1.33-8.91-2.77-2.15-1.16-6.69-2.76-6.8-5.64a1.83,1.83,0,0,0-.13.24C136,90,135.75,92.13,136.62,92.77Z"/><path class="cls-12" d="M150.39,90.12c-.4-1.59.25-2.84.45-4.36.63-4.6-7.54-.56-8.4.12s-3.24,2.27-3.17,3.73,2.71,2.7,3.83,3.29c1.71.88,4.18,2.23,6.13,2.21a2.32,2.32,0,0,0,2.16-2.45C151.37,91.74,150.61,91,150.39,90.12Z"/><path class="cls-12" d="M158.62,58.19c-1.5-.89-3.8-2.22-4.6-1.69s.74,1.06,1.37,1.49a40.32,40.32,0,0,0,3.81,2.23A55.26,55.26,0,0,0,166,63.37c.76.28,1.28-.29.59-.71C164.71,61.52,161,59.6,158.62,58.19Z"/><path class="cls-8" d="M18.09,90.47c2.29-1.54,4.71-2.94,7-4.4,1.34-.84,2.76-2.1,4.26-2.6a1.35,1.35,0,0,1,1.7.42c.44.74-.07,1.16-.67,1.51-1.64.93-3.3,1.83-4.93,2.77-2.45,1.41-4.86,2.88-7.26,4.37Z"/><path class="cls-8" d="M32.92,85.5A1.35,1.35,0,0,1,34.59,85,22,22,0,0,1,39,87.31c3,1.64,6.22,3.18,9.11,5.08l0,1.93q-4.63-2.55-9.37-4.9c-1.69-.84-3.41-1.63-5.1-2.46C33.06,86.66,32.52,86.27,32.92,85.5Z"/><path class="cls-8" d="M30.33,69.22c0-2.55-.51-13.23-.9-15.95-.36-2.56-.84-5.06-1.29-7.58-.27-1.54-2.22-9.44.23-8.23.93.47,1.5,2,1.87,3.47a55.45,55.45,0,0,1,1.19,6.84,136.62,136.62,0,0,1,.6,21C32.05,69.25,30.33,69.25,30.33,69.22Z"/><path class="cls-9" d="M16.57,61.64c-.26-1.93-.72-3.82-1.11-5.73a34,34,0,0,0-1.87-6.52c-.13-.31-.28-.61-.43-.92.83-.57,7.47-4.66,10.35-6.15,3.76-2,4.64-2.4,4.95-1.78,1.73,3.36,2.69,9,2.76,12.77,0,.4,0,1-2.12,2.07-4.24,2.09-11.67,6.92-12.43,7.22C16.64,62.41,16.59,61.82,16.57,61.64Z"/><path class="cls-10" d="M14.17,49.36c.14-1.22,14.41-9,15.55-8.85,1.89.32,4,9.59,2.09,11.56S19.57,60,16.86,61a.41.41,0,0,1-.49-.28c-.52-2.05-1-4.11-1.39-6.19C14.67,53,14,51,14.17,49.36Z"/><path class="cls-11" d="M15.77,48.13c1.35-1.31,2.65,3.45,2.8,4.11.5,2.22,1.75,7-.81,8.52a.77.77,0,0,1-1.21-.25A7.51,7.51,0,0,1,16.06,58c-.17-1-.33-2.07-.5-3.1a31.25,31.25,0,0,1-.83-5.33A1.29,1.29,0,0,1,15.77,48.13Z"/><path class="cls-1" d="M18.12,77.68H16.44s-.22-.83-.22-.86c0-2.24-1-12.43-1.35-15.15-.37-2.56-.85-5.06-1.3-7.58-.27-1.53-2.22-9.44.23-8.22.93.46,1.5,2,1.87,3.47a55,55,0,0,1,1.19,6.83c.63,5,1.69,14.6,1.23,19.72C18.11,76.35,18.13,77.36,18.12,77.68Z"/><path class="cls-1" d="M15.69,90.79Q16,83.31,16.85,76c0-.21.17-.28.28-.2l1.17.84a.29.29,0,0,1,.09.15c.05-.19.24-.18.26.07.36,5.19.43,10.44.61,15.64.08,2.37,1,6.23-2.12,6.2C14.82,98.67,15.61,93.07,15.69,90.79Z"/><path class="cls-1" d="M49.92,92.36q-.27-7.47-1.16-14.8c0-.2-.17-.27-.28-.19l-1.16.84a.31.31,0,0,0-.1.15c0-.19-.24-.18-.26.07-.35,5.19-.43,10.43-.6,15.63-.08,2.37-1,6.24,2.11,6.21C50.8,100.24,50,94.65,49.92,92.36Z"/><path class="cls-8" d="M17.6,93a1.36,1.36,0,0,1,1.67-.53,22.85,22.85,0,0,1,4.42,2.34c3,1.65,6.22,3.19,9.11,5.08l0,1.93c-3.09-1.69-6.21-3.34-9.37-4.9-1.69-.84-3.4-1.62-5.09-2.46C17.75,94.13,17.21,93.74,17.6,93Z"/><path class="cls-8" d="M34.87,99.61c2.28-1.55,4.7-3,7-4.4a22.27,22.27,0,0,1,4.25-2.61,1.36,1.36,0,0,1,1.71.42c.44.75-.08,1.17-.68,1.51-1.63.94-3.29,1.83-4.93,2.77-2.45,1.41-4.86,2.88-7.26,4.38Z"/><path class="cls-1" d="M32.79,86.19l2-1.65c.35,5.17.85,12.25,1,17.44.08,2.37,1,6.23-2.11,6.2-2.33,0-1.54-5.61-1.45-7.9C32.4,95.6,32.25,90.78,32.79,86.19Z"/><path class="cls-8" d="M16.06,75.6h1.71l10.81-6.24a6.29,6.29,0,0,1,5.64.23l12.6,7.24,2.38.22,0,2a1.92,1.92,0,0,1,0,.24v.21h0a1.8,1.8,0,0,1-.94,1.16L36.69,87.32A6.31,6.31,0,0,1,31,87.09l-13.6-7.81a2.19,2.19,0,0,1-1.35-2h0A16.12,16.12,0,0,0,16.06,75.6Z"/><path class="cls-9" d="M36.69,85.14l11.54-6.66c1.44-.84,1.26-2.3-.41-3.27l-13.6-7.75a6.29,6.29,0,0,0-5.64-.23L17,73.89c-1.45.83-1.26,2.3.4,3.26L31,84.9A6.32,6.32,0,0,0,36.69,85.14Z"/><path class="cls-10" d="M40.84,79.16c-2.68,1.44-5.73,3.8-8.91,2.77-2.78-.89-5.44-2.86-7.9-4.39a19.62,19.62,0,0,1-4.62-3.6A13.89,13.89,0,0,1,22.78,71c2.64-1.89,9.62-5.37,10.56-5.29a8.41,8.41,0,0,1,1.28.23,32.31,32.31,0,0,1,5,2.07,26.59,26.59,0,0,1,6.2,3.74,7.62,7.62,0,0,1,1.78,1.76C47.52,76.4,43,78,40.84,79.16Z"/><path class="cls-11" d="M47.57,77.46c-1.68,1.23-4.72,2.51-6.24,3.43s-4.81,3.24-6.56,3.65a8.14,8.14,0,0,1-4.45-1c-2-1-3.94-2.24-5.9-3.37-1.59-.92-3.88-1.74-5.06-3.21a2.35,2.35,0,0,1,.05-3.07A19.62,19.62,0,0,0,24,77.54c2.46,1.53,5.12,3.5,7.9,4.39,3.18,1,6.23-1.33,8.91-2.77C43,78,47.52,76.4,47.63,73.52c0,.08.1.16.14.24C48.17,74.64,48.44,76.82,47.57,77.46Z"/><path class="cls-12" d="M33.8,74.81c.4-1.58-.25-2.84-.46-4.36-.62-4.6,7.55-.56,8.41.12S45,72.84,44.91,74.3s-2.7,2.7-3.83,3.29c-1.7.88-4.17,2.23-6.12,2.21a2.32,2.32,0,0,1-2.17-2.45C32.82,76.43,33.58,75.69,33.8,74.81Z"/><path class="cls-12" d="M25.57,42.88c1.5-.89,3.8-2.22,4.59-1.69s-.73,1.06-1.37,1.49A40.16,40.16,0,0,1,25,44.91a54.71,54.71,0,0,1-6.77,3.15c-.75.28-1.27-.29-.59-.71C19.48,46.21,23.17,44.29,25.57,42.88Z"/><path class="cls-13" d="M144.58,54.65a19.65,19.65,0,0,0-4.28,5.66,48.1,48.1,0,0,1-4.45,6.58c-.73-.79-4.32-4.61-6-6.57s-2.56-1.51-4-1.81-1.4-1.69-3-1.77-1.31.67,0,2.4a6.45,6.45,0,0,0,2.61,2.22c1.48.41,2.92.32,3.34,1.66.27.84,2.86,6.63,4.16,7.52,1.72,1.18,1.8,1.57,3.12,1.49.93-.06,1.73-1,2.13-1.49A57,57,0,0,0,142.15,66c1.54-2.21,4.74-8.09,4.86-8.31S144.58,54.65,144.58,54.65Z"/><path class="cls-14" d="M144.88,54.15a6.73,6.73,0,0,0-3.1,2.07,63.05,63.05,0,0,0-4.41,6.83,14.1,14.1,0,0,0,2,2.52c.66.45,2.32,1.41,2.32,1.41l5.66-8.48Z"/><path class="cls-15" d="M130.53,109.24c-.78.87-1.66,1.84-2.47,2.69-1.09,1.15-2.38,2.37-3.56,3.43-1.44,1.29-1.55,2.85.82,2.72,3.84-.21,4.73-1.82,6.51-3.18.24-.19.65.26,1.63-.13,1.23-.5,1.38-.69,1.38-1.92a10,10,0,0,0-.49-3.19l0,0C134.58,109.41,131.58,108.08,130.53,109.24Z"/><path class="cls-15" d="M137.94,117.53c-.79.86-1.67,1.83-2.48,2.69-1.09,1.15-2.38,2.37-3.56,3.43-1.44,1.29-1.55,2.85.82,2.72,3.84-.22,4.73-1.83,6.51-3.19.24-.18.65.27,1.63-.12,1.23-.5,1.38-.69,1.38-1.92a10,10,0,0,0-.49-3.19l0,0C142,117.69,139,116.37,137.94,117.53Z"/><path class="cls-2" d="M154.05,80.46c-.32-.67-7.68-3.12-7.49-3-5.89,2.22-13,4.68-18,8.94a1.81,1.81,0,0,0-1.79,2.14,47.92,47.92,0,0,0,1,4.87c.75,4.57,1.71,12,2.06,16.61.78,1.38,3.08,1.38,4.54.34.45-3.31.61-7.76,1.18-10.41.75-3.51-.48-5.21-1.55-7.08,2.89.11,9.17-3.15,12-3.93,3.41-1,4.34-1,6.88-3.58C154.61,83.55,155.22,83,154.05,80.46Z"/><path class="cls-3" d="M153.76,80.93a18.07,18.07,0,0,1-5.63-.36,5.5,5.5,0,0,0-.5.81c-.66,1.32-1.26,2.32-.76,3.83-.88,1.25-4.87,6.16-5.59,7.66-.92.91-1.41,1.43-1.3,3.53a32.49,32.49,0,0,1-.3,6.13c-.52,5.11-1.43,9.42-1.8,14.53,1.19,1.83,2.78,1.9,4.36.46,1.53-4.74,4.52-8,4.83-12.21.21-2.75.25-4.82-1-6.56,5-2.77,11.51-4.33,14.28-9.6,1.8-3.41.93-6-.92-9.45A11.09,11.09,0,0,1,153.76,80.93Z"/><path class="cls-15" d="M143.92,56.45c2.06-2.61,1.2-1.85,3.69-.43,3.06,1.75,5.53,2.86,6.87,4,2.27,1.89,3.58,5.78,4,10.67a27.36,27.36,0,0,0,.77,4c.94,2.67.48,3.11-.19,3.73a1.13,1.13,0,0,1,.73,1.93c-4.67,3.29-13.63,3.33-14.91-2.14a3.55,3.55,0,0,1,.49-1.68,2.78,2.78,0,0,1-.85-2.17c-1.05-.57-1.27-1.45-1.51-2.93-2.1-.48-4.3-2.82-3.3-5.25.81-2,1.09-3.76,1.68-5.11A17,17,0,0,1,143.92,56.45Z"/><path class="cls-13" d="M144.78,57.9c.58-.09,2.08-.86,1.63-3.65-.13-.78,3.38-2.88,3.38-2.77,0,2.53.58,5.27,1.74,6.58-1.67,1.74-3.24,5.71-6.11,4.29C144,61.64,143.65,61.12,144.78,57.9Z"/><path class="cls-14" d="M143.85,56.06s-1.12,3.08-1.5,4.1l-1.12,2.92s1.08-.48,1.62-.19,1.31,1.14,1.78,1.28a3,3,0,0,0,1.08,0l.37-1.29s-1-.31-1-2,.28-3.89.28-3.89Z"/><path class="cls-14" d="M150.22,55.47a5.88,5.88,0,0,1-.91,2.57,18.17,18.17,0,0,1-3.85,4c-1.37,1.1-.57,3.1-.57,3.1s.53-1.15,1.15-1,1,.78,1.69,1.46a12.58,12.58,0,0,1,2.14-2.88c1-1,2.9-3.18,2.44-5A3.31,3.31,0,0,0,150.22,55.47Z"/><path class="cls-2" d="M141.89,51.89a.29.29,0,0,0-.1-.12l.07-.07a0,0,0,0,0,0-.07l-.24.09a.25.25,0,0,0-.16.06c-1.43.58-2.79,2.38-2.24,3.9a1.34,1.34,0,0,0,1.58.86h0c-.5,1.61.11,3.56,2.05,2.8,1.29-.51,1.61-2.13,1.57-3.37C144.34,54.21,142.66,53.37,141.89,51.89Z"/><path class="cls-6" d="M142.28,48.07c2.38-.53,3.63-.63,5.74.22a11.62,11.62,0,0,1,3.38,1.56.29.29,0,0,1,.13.27c-.55,3.13-1.6,6.45-5.11,7.84-2.9,1.15-4.52-2-5-4.15C140.81,51.33,140.64,48.44,142.28,48.07Z"/><path class="cls-6" d="M147.85,53s.57-1.93,1.82-.94-.52,2.94-.52,2.94Z"/><path class="cls-16" d="M150.47,76.93a14.27,14.27,0,0,1,4.37-.74,11.72,11.72,0,0,1,2.85.74s-2.16.3-3.61.36A19.69,19.69,0,0,1,150.47,76.93Z"/><path class="cls-16" d="M149.74,79.16c.18,0,3.37-.1,5.08-.22s2.39-.2,2.39-.2a6.15,6.15,0,0,1-3.4,1.06A16,16,0,0,1,149.74,79.16Z"/><path class="cls-13" d="M127.17,59.57a23.69,23.69,0,0,1-1.09-2.12c-.35-.77-.21-1.48.21-1.59s.42.85.88,1.28,2.22,1.91,1.94,2.68S127.17,59.57,127.17,59.57Z"/><path class="cls-6" d="M158.35,68.91c-.73-2-4.95.4-4.95.4s0,1.78,0,3.52.18,6.12.18,6.12-4.76,7.22-5.28,7.94c-.18.25-1.29,0-2,.47-.94.63-1,1.12-1.5,1.42-1,.6-1,1.18-.27,1.15s1.43-.85,1.66-.83.13.75-.33,1.72-1.67,2.28-1.07,3.15,2,.3,3.42-1.07c1.15-1.13,1.27-2.78,2-4.33a65.44,65.44,0,0,1,6.48-6.92,2.24,2.24,0,0,0,1-1.25,7,7,0,0,0,.41-2.6C158,75.9,159.09,70.89,158.35,68.91Z"/><path class="cls-14" d="M154.77,61.59c-1.53.56-2.25,2.77-2.34,5.55s0,6.69,0,6.69a7.59,7.59,0,0,0,3.67,1,4.66,4.66,0,0,0,3.31-1.18S159,66,158.24,63.86,156.09,61.11,154.77,61.59Z"/><path class="cls-2" d="M155.46,52.12a4.46,4.46,0,0,0-1.75-2.36,1.9,1.9,0,0,0-.13-1.73,4.32,4.32,0,0,0-3-2,2.08,2.08,0,0,0,.22-1.78,2,2,0,0,0-1.63-1.12,3,3,0,0,0-2.81.75,1.79,1.79,0,0,0-2.18-.9,1.3,1.3,0,0,0-.69.92,1.27,1.27,0,0,0-1.85,0,.83.83,0,0,0,0,1c-1.15-.12-2.51.21-2.74,1.23a1.41,1.41,0,0,0,.52,1.43c-.86.64-1.35,1.67-.5,2.61,1,1.11,3.22.89,4.35-.11A3.41,3.41,0,0,0,146,52.81a2.31,2.31,0,0,0,1.61-.58,5.2,5.2,0,0,0,1,1.21A3.83,3.83,0,0,0,148,55.9a2.6,2.6,0,0,0,.93,1.7,3.86,3.86,0,0,0-1.21,3.92c.35,1.21,1.8,2.15,3.71.92A4,4,0,0,0,152.81,59a1.51,1.51,0,0,0,1.81-1.1,2.9,2.9,0,0,0-.51-2.2C155.32,55.17,155.75,53.27,155.46,52.12Z"/><path class="cls-13" d="M90.75,47.08c-.72-.74-1.64.23-2.92.48a4.29,4.29,0,0,1-2.19-.1s0-.42.9-.53,1.29-1.41.72-1.27-1.12.18-2.24.49a26.94,26.94,0,0,0-2.47,1.22c-1.83-1.07-5-2.18-6.77-3.71a53.55,53.55,0,0,1-4.25-9.74,20.18,20.18,0,0,0-3.17-6.48s-3.1,2.36-3,2.59,2.12,6.73,3.24,9.23,2.76,6.58,3.86,8.41c1,.45,7.65,2.1,9.7,2.6a10.29,10.29,0,0,0,6,.34C90.22,50.07,91.47,47.83,90.75,47.08Z"/><path class="cls-17" d="M66.85,27.69a3.22,3.22,0,0,1,3.38,1.48c1.4,2,2.32,7.19,2.56,8.32a10.53,10.53,0,0,0-3.27,1.44,2.66,2.66,0,0,1-1.59.55l-5.55-10.2Z"/><path class="cls-18" d="M72.54,36.23s-2.19.22-3.08,1.26a6.79,6.79,0,0,0-1,1.44l.71,1.15A11.74,11.74,0,0,1,71,38.48a5.6,5.6,0,0,1,2-.73Z"/><path class="cls-3" d="M54,102.87c.8.89,1.71,1.89,2.54,2.77,1.13,1.19,2.45,2.45,3.67,3.54,1.49,1.33,1.61,2.94-.84,2.8-4-.22-4.88-1.88-6.71-3.28-.25-.19-.67.28-1.67-.13-1.27-.51-1.43-.71-1.43-2a10.34,10.34,0,0,1,.5-3.3s0,0,0,0C49.81,103,52.9,101.68,54,102.87Z"/><path class="cls-3" d="M70.14,93.27c.81.89,1.71,1.89,2.55,2.77,1.12,1.19,2.44,2.45,3.66,3.54,1.49,1.33,1.61,2.94-.84,2.8-4-.22-4.88-1.88-6.7-3.28-.26-.19-.68.27-1.68-.13-1.27-.51-1.43-.71-1.43-2a10.63,10.63,0,0,1,.5-3.3s0,0,0,0C66,93.44,69.06,92.08,70.14,93.27Z"/><path class="cls-16" d="M73.07,74.94c0-2.7-1.26-16.28-7.85-23.64-.63-.83-2.83-1.14-2.9-1.08-1.55-.3-4.34,1.94-5,2.72-1.37,1.49,1.61,11.39,3,14.24a62.35,62.35,0,0,0,5.48,8.92,50.41,50.41,0,0,0-1.3,6.54C63.9,87.53,66.1,94,66.1,94s2.47,1.21,4-.71C71.05,87.91,72,83.17,73.07,74.94Z"/><path class="cls-15" d="M60.7,61.77a9.5,9.5,0,0,0,1.87-6.67c-.09-1.21-.19-2.43-1.49-2.75-2.21-.54-9.06-1.6-9-1.38-3.95,4.54-4.15,11.09-3.81,17,.31,5.64,3.27,10.53,4.65,15.85-.45.75-2.19,2.63-2.44,5.28-.47,4.93-.39,11.41-.45,14.12,1.08,1.47,3.69.47,4.17.21C55,100,57.16,93,59.37,86a53.22,53.22,0,0,0,2.57-12.92C62.38,68.43,61.76,65.79,60.7,61.77Z"/><path class="cls-19" d="M68.12,29.88C66,27.18,65,27,62.38,28.45c-3.15,1.8-5.69,2.94-7.07,4.08-2.34,1.95-3.7,6-4.09,11a29.32,29.32,0,0,1-.8,4.14c-1,2.75-.49,3.2.2,3.85-.38.37-.75,2,0,2.44,3.65,2.14,11.75,2.52,14.56-2.66.18-.32-.28-1.44-.5-1.73a2.27,2.27,0,0,0,1-1.9,4,4,0,0,0,2.25-3c2.16-.48,4.49-1.7,3.79-4.31-.34-1.27-2.07-4.23-2.38-5.72C68.83,31.94,68.73,30.64,68.12,29.88Z"/><path class="cls-13" d="M66.67,30.74c-.59-.1-2.14-.89-1.68-3.76.13-.81-3.48-3-3.48-2.85,0,2.6-.37,5.57-1.57,6.92,1.72,1.8,3.43,6.46,6.37,5.84C67.93,36.54,67.84,34.05,66.67,30.74Z"/><path class="cls-18" d="M68,28.82s1.09,3.32,1.47,4.41l1.09,3.15s-1.13-.54-1.72-.25-1.43,1.18-1.93,1.3a3.11,3.11,0,0,1-1.16,0l-.36-1.38s1-.3,1.1-2.06-.17-4.17-.17-4.17Z"/><path class="cls-6" d="M69.79,20.3c-2.45-.55-3.73-.65-5.91.23a12,12,0,0,0-3.48,1.6.32.32,0,0,0-.14.28c.56,3.23,1.65,6.65,5.27,8.08,3,1.18,4.65-2.09,5.17-4.28C71.3,23.66,71.49,20.68,69.79,20.3Z"/><path class="cls-2" d="M58,17.79c.89-3.25,2.9-4.89,4.31-3.44.29-1.55,1.8-2.54,2.67-1.38.71-1.68,2.51-1.26,3.49-.49,1.86,1.46,5.83,7,2.93,9.07-.18,2.76-3.47,3-5.38,1.62-1,.95-3,.92-3.62,0-.35,1.74-.89,3.38-1.24,4.84C59.94,27.2,56.72,22.55,58,17.79Z"/><path class="cls-6" d="M63.23,24.91s-.59-2-1.88-1,.53,3,.53,3Z"/><path class="cls-17" d="M63.66,47.28a14.63,14.63,0,0,0-4.5-.75,11.94,11.94,0,0,0-2.93.75s2.22.32,3.71.38A20.19,20.19,0,0,0,63.66,47.28Z"/><path class="cls-17" d="M62.38,50.85c-.19,0-3.47-.09-5.24-.22s-2.46-.21-2.46-.21a6.29,6.29,0,0,0,3.5,1.1A16.37,16.37,0,0,0,62.38,50.85Z"/><path class="cls-6" d="M55.77,43.58S55.2,47.19,54.72,51c2,4.23,4.05,8.42,4.05,8.42l-3.08,2.47a37.11,37.11,0,0,1-4.23-6.67c-1.07-2.17-2-2.26-1.85-4.22.39-4.2.81-9.26.81-9.26S54,41.77,55.77,43.58Z"/><path class="cls-17" d="M56.92,32.39c2,1.53,2.56,4.78,1.4,7.94a22.05,22.05,0,0,1-2.78,5.3,32.74,32.74,0,0,0-5.33-.88c-.75-3.7-.76-7.53.76-10S55.51,31.32,56.92,32.39Z"/><path class="cls-18" d="M61.17,28a6.27,6.27,0,0,0,.89,2.77,19.63,19.63,0,0,0,3.58,4.59,3.25,3.25,0,0,1,.9,3.15s-.52-1.24-1.2-1-1,.81-1.85,1.5a13.71,13.71,0,0,0-2.18-3.14c-1.05-1.09-3-3.49-2.45-5.42A3.56,3.56,0,0,1,61.17,28Z"/><path class="cls-18" d="M56.08,44.84a8.22,8.22,0,0,0-3-1.05,9.25,9.25,0,0,0-3,0l.11,1.84a12.58,12.58,0,0,1,2.92,0,10.31,10.31,0,0,1,2.31.87Z"/><path class="cls-3" d="M28.48,96.32v47.91c0,.55.83,1,1.86,1s1.86-.44,1.86-1V96.32Z"/><path class="cls-3" d="M139.22,96.32v47.91c0,.55.83,1,1.85,1s1.86-.44,1.86-1V96.32Z"/><path class="cls-3" d="M82.29,114.32v47.92c0,.54.84,1,1.86,1s1.86-.44,1.86-1V114.32Z"/><path class="cls-8" d="M146.33,91.82c-3.27-16.28-29.16-29-60.62-29s-57.36,12.68-60.63,29h-.35V95.3c0,17.91,27.3,32.44,61,32.44s61-14.53,61-32.44V91.82Z"/><path class="cls-1" d="M146.49,88.45c-3.27-16.32-29.24-29-60.78-29s-57.51,12.71-60.79,29h-.36v3.49c0,18,27.38,32.53,61.15,32.53s61.14-14.57,61.14-32.53V88.45Z"/><path class="cls-9" d="M85.71,55.93c-33.77,0-61.15,14.56-61.15,32.52S51.94,121,85.71,121s61.14-14.56,61.14-32.52S119.47,55.93,85.71,55.93Z"/><polygon class="cls-20" points="73.94 76.24 84.97 69.87 67.74 60 56.71 66.37 73.94 76.24"/><path class="cls-3" d="M81.64,69.47c-2.67,1.38-5.29,2.85-7.93,4.27-.21.11,0,.42.18.31,2.62-1.47,5.27-2.88,7.86-4.4A.11.11,0,1,0,81.64,69.47Z"/><path class="cls-3" d="M80.45,68.69c-2.67,1.37-5.29,2.85-7.94,4.27-.2.11,0,.42.18.31,2.63-1.47,5.27-2.89,7.87-4.4C80.68,68.8,80.57,68.63,80.45,68.69Z"/><path class="cls-3" d="M79.09,68c-2.67,1.37-5.29,2.85-7.94,4.27-.2.11,0,.42.19.31,2.62-1.47,5.26-2.89,7.86-4.4C79.32,68.11,79.21,67.94,79.09,68Z"/><path class="cls-3" d="M77.9,67.22c-2.67,1.37-5.29,2.84-7.94,4.27-.2.11,0,.42.18.31,2.62-1.47,5.27-2.89,7.87-4.4A.11.11,0,0,0,77.9,67.22Z"/><path class="cls-3" d="M75,65.9c-2.67,1.38-5.29,2.85-7.94,4.27a.18.18,0,0,0,.18.31c2.62-1.46,5.27-2.88,7.87-4.39C75.23,66,75.12,65.84,75,65.9Z"/><path class="cls-3" d="M73.81,65.18c-2.68,1.38-5.3,2.85-7.94,4.27-.21.11,0,.43.18.31,2.62-1.46,5.27-2.88,7.86-4.39A.11.11,0,0,0,73.81,65.18Z"/><path class="cls-3" d="M72,64.12C69.34,65.5,66.72,67,64.07,68.4c-.2.1,0,.42.18.3,2.62-1.46,5.27-2.88,7.87-4.39C72.24,64.24,72.13,64.06,72,64.12Z"/><path class="cls-3" d="M70.81,63.34c-2.67,1.38-5.29,2.85-7.93,4.27-.21.11,0,.43.18.31,2.62-1.46,5.27-2.88,7.86-4.39A.11.11,0,0,0,70.81,63.34Z"/><path class="cls-3" d="M69.45,62.65c-2.67,1.38-5.29,2.85-7.93,4.27-.21.11,0,.43.18.31,2.62-1.46,5.27-2.88,7.86-4.39A.11.11,0,0,0,69.45,62.65Z"/><path class="cls-3" d="M68.26,61.87c-2.67,1.38-5.29,2.85-7.94,4.27-.2.11,0,.43.19.31,2.62-1.46,5.26-2.88,7.86-4.39C68.49,62,68.38,61.81,68.26,61.87Z"/><path class="cls-6" d="M58.09,58.6l-3.7,1.63a36.31,36.31,0,0,0,3,3.62c1.29,1.27,2.56,1,4.89,2.44s3.55.53,2.83-2.23c-.38-1.45-1.65-2.86-4.26-3.5A4.64,4.64,0,0,1,58.09,58.6Z"/><path class="cls-13" d="M137,67.55l-.61-1.36-.53.7c-.73-.79-4.32-4.61-6-6.57s-2.56-1.51-4-1.81-1.4-1.69-3-1.77-1.31.67,0,2.4a6.45,6.45,0,0,0,2.61,2.22c1.48.41,2.92.32,3.34,1.66.27.84,2.86,6.63,4.16,7.52,1.72,1.18,1.8,1.57,3.12,1.49.92-.06,1.7-1,2.11-1.46C137.8,69.56,137.42,68.54,137,67.55Z"/><path class="cls-2" d="M68.86,101.3l.45.51a4,4,0,0,1,.62-.46l6.71-3.87a5.74,5.74,0,0,1,5.14-.21l10.69,6.17.21.15.49-.55a2.77,2.77,0,0,1,.11,2.12s0,0,0,0a2.56,2.56,0,0,1-1.15,1.2l-6.71,3.87a5.73,5.73,0,0,1-5.15.22l-10.69-6.18a1.77,1.77,0,0,1-.76-.78.52.52,0,0,1-.06-.13A2.67,2.67,0,0,1,68.86,101.3Z"/><path class="cls-21" d="M80.25,109.45l-10.69-6.18c-1.31-.75-1.15-2.09.37-3l6.71-3.87a5.74,5.74,0,0,1,5.14-.21l10.69,6.17c1.32.76,1.15,2.1-.36,3l-6.71,3.88A5.76,5.76,0,0,1,80.25,109.45Z"/><path class="cls-22" d="M79.75,97.16l-.87-.5a.35.35,0,0,0-.33,0l-.48.27c-.09.06-.11.15,0,.19l.86.5a.37.37,0,0,0,.34,0l.47-.28C79.82,97.3,79.83,97.21,79.75,97.16Z"/><path class="cls-22" d="M83.14,99.12l-2.59-1.49a.35.35,0,0,0-.33,0l-.48.28c-.1,0-.11.14,0,.19l2.59,1.49a.35.35,0,0,0,.33,0l.48-.28C83.22,99.26,83.23,99.17,83.14,99.12Z"/><path class="cls-22" d="M84.81,100.09l-.86-.5a.35.35,0,0,0-.33,0l-.48.28c-.1.05-.11.14,0,.19l.87.5a.35.35,0,0,0,.33,0l.48-.27C84.89,100.22,84.9,100.14,84.81,100.09Z"/><path class="cls-22" d="M77.19,98.64l-.86-.5a.35.35,0,0,0-.33,0l-.48.28c-.1,0-.11.14,0,.19l.86.5a.35.35,0,0,0,.33,0l.48-.27C77.27,98.77,77.28,98.69,77.19,98.64Z"/><path class="cls-22" d="M78.86,99.6,78,99.1a.38.38,0,0,0-.33,0l-.48.28c-.1.06-.11.14,0,.19l.87.5a.38.38,0,0,0,.33,0l.48-.28C78.94,99.74,79,99.65,78.86,99.6Z"/><path class="cls-22" d="M80.59,100.6l-.87-.5a.38.38,0,0,0-.33,0l-.48.28c-.09,0-.1.14,0,.19l.87.5a.38.38,0,0,0,.33,0l.48-.28C80.66,100.73,80.67,100.65,80.59,100.6Z"/><path class="cls-22" d="M82.26,101.56l-.87-.5a.35.35,0,0,0-.33,0l-.48.27c-.09.06-.1.14,0,.19l.87.5a.35.35,0,0,0,.33,0l.48-.28C82.33,101.7,82.34,101.61,82.26,101.56Z"/><path class="cls-22" d="M75.92,99.37l-.87-.5a.39.39,0,0,0-.33,0l-.48.27c-.1.06-.11.15,0,.2l.86.5a.41.41,0,0,0,.34,0l.47-.27C76,99.51,76,99.42,75.92,99.37Z"/><path class="cls-22" d="M77.59,100.34l-.87-.5a.38.38,0,0,0-.33,0l-.48.28c-.1.05-.11.14,0,.19l.86.5a.41.41,0,0,0,.34,0l.47-.28C77.66,100.47,77.67,100.39,77.59,100.34Z"/><path class="cls-22" d="M79.31,101.33l-.86-.49a.35.35,0,0,0-.33,0l-.48.27c-.1.06-.11.15,0,.2l.87.5a.39.39,0,0,0,.33,0l.48-.27C79.39,101.47,79.4,101.38,79.31,101.33Z"/><path class="cls-22" d="M81,102.3l-.86-.5a.41.41,0,0,0-.34,0l-.47.28c-.1,0-.11.14,0,.19l.87.5a.38.38,0,0,0,.33,0l.48-.28C81.06,102.43,81.07,102.35,81,102.3Z"/><path class="cls-22" d="M74.3,100.31l-.87-.5a.38.38,0,0,0-.33,0l-.48.28c-.1.06-.11.14,0,.19l.86.5a.41.41,0,0,0,.34,0l.47-.28C74.37,100.44,74.38,100.36,74.3,100.31Z"/><path class="cls-22" d="M76,101.27l-.87-.5a.35.35,0,0,0-.33,0l-.48.27c-.1.06-.11.15,0,.19l.86.5a.37.37,0,0,0,.34,0l.47-.28C76,101.41,76.05,101.32,76,101.27Z"/><path class="cls-22" d="M77.69,102.27l-.86-.5a.38.38,0,0,0-.33,0l-.48.28c-.1.06-.11.14,0,.19l.87.5a.38.38,0,0,0,.33,0l.48-.28C77.77,102.4,77.78,102.32,77.69,102.27Z"/><path class="cls-22" d="M79.36,103.23l-.86-.5a.35.35,0,0,0-.33,0l-.48.27c-.1.06-.11.15,0,.2l.87.49a.35.35,0,0,0,.33,0l.48-.27C79.44,103.37,79.45,103.28,79.36,103.23Z"/><path class="cls-22" d="M78.47,97.9l-.86-.5a.41.41,0,0,0-.34,0l-.47.28c-.1.06-.11.14,0,.19l.87.5a.38.38,0,0,0,.33,0l.48-.28C78.55,98,78.56,98,78.47,97.9Z"/><path class="cls-22" d="M80.14,98.86l-.86-.5a.37.37,0,0,0-.34,0l-.47.27c-.1.06-.11.15,0,.2l.87.49a.35.35,0,0,0,.33,0l.48-.27C80.21,99,80.23,98.91,80.14,98.86Z"/><path class="cls-22" d="M81.87,99.86l-.87-.5a.38.38,0,0,0-.33,0l-.48.28c-.1.06-.11.14,0,.19l.86.5a.41.41,0,0,0,.34,0l.47-.28C81.94,100,82,99.91,81.87,99.86Z"/><path class="cls-22" d="M83.54,100.82l-.87-.5a.39.39,0,0,0-.33,0l-.48.27c-.1.06-.11.15,0,.2l.86.5a.38.38,0,0,0,.33,0l.48-.27C83.61,101,83.62,100.87,83.54,100.82Z"/><path class="cls-22" d="M86.51,101.06l-.87-.49a.35.35,0,0,0-.33,0l-.48.27c-.1.06-.11.15,0,.2l.86.5a.37.37,0,0,0,.34,0l.47-.27C86.58,101.2,86.59,101.11,86.51,101.06Z"/><path class="cls-22" d="M84,102.54l-.86-.5a.38.38,0,0,0-.33,0l-1.76,1c-.1.05-.11.14,0,.19l.86.5a.37.37,0,0,0,.34,0l1.75-1C84,102.67,84,102.59,84,102.54Z"/><path class="cls-22" d="M81.06,104.21l-.87-.5a.35.35,0,0,0-.33,0l-.48.27c-.1.06-.11.14,0,.19l.86.5a.37.37,0,0,0,.34,0l.47-.28C81.13,104.35,81.14,104.26,81.06,104.21Z"/><path class="cls-22" d="M72.9,101.09l-.86-.5a.38.38,0,0,0-.33,0l-.48.28c-.1.05-.11.14,0,.19l.86.5a.38.38,0,0,0,.33,0l.48-.28C73,101.22,73,101.14,72.9,101.09Z"/><path class="cls-22" d="M74.57,102.05l-.86-.5a.35.35,0,0,0-.33,0l-.48.27c-.1.06-.11.14,0,.19l.87.5a.35.35,0,0,0,.33,0l.48-.28C74.65,102.19,74.66,102.1,74.57,102.05Z"/><path class="cls-22" d="M76.3,103.05l-.86-.5a.41.41,0,0,0-.34,0l-.47.28c-.1,0-.11.14,0,.19l.87.5a.38.38,0,0,0,.33,0l.48-.28C76.37,103.18,76.38,103.1,76.3,103.05Z"/><path class="cls-22" d="M78,104l-.87-.5a.35.35,0,0,0-.33,0l-.48.27c-.09.06-.1.14,0,.19l.87.5a.35.35,0,0,0,.33,0l.48-.28C78,104.15,78.05,104.06,78,104Z"/><path class="cls-22" d="M79.66,105l-.86-.5a.38.38,0,0,0-.33,0l-.48.28c-.1.06-.11.14,0,.19l.87.5a.38.38,0,0,0,.33,0l.48-.28C79.74,105.13,79.75,105,79.66,105Z"/><path class="cls-22" d="M85.23,101.8l-.86-.5a.37.37,0,0,0-.34,0l-.47.27c-.1.06-.11.15,0,.19l.87.5a.35.35,0,0,0,.33,0l.48-.28C85.3,101.94,85.32,101.85,85.23,101.8Z"/><path class="cls-22" d="M88.18,102l-.87-.5a.38.38,0,0,0-.33,0l-.48.28c-.1.06-.11.14,0,.19l.86.5a.41.41,0,0,0,.34,0l.47-.28C88.25,102.16,88.26,102.08,88.18,102Z"/><path class="cls-22" d="M91,102.27l-.86-.5a.41.41,0,0,0-.34,0l-.47.27c-.1.06-.11.15,0,.2l.87.5a.39.39,0,0,0,.33,0l.48-.27C91.11,102.41,91.12,102.32,91,102.27Z"/><path class="cls-22" d="M82.63,97.38l-.87-.5a.35.35,0,0,0-.33,0l-.48.28c-.09,0-.1.14,0,.19l.87.5a.35.35,0,0,0,.33,0l.48-.27C82.7,97.51,82.71,97.43,82.63,97.38Z"/><path class="cls-22" d="M91.57,104,89,102.49a.35.35,0,0,0-.33,0l-.48.27c-.1.06-.11.15,0,.19l2.59,1.5a.38.38,0,0,0,.33,0l.48-.28C91.65,104.12,91.66,104,91.57,104Z"/><path class="cls-22" d="M85.62,103.5l-.86-.5a.35.35,0,0,0-.33,0l-.48.27c-.1.06-.11.15,0,.19l.87.5a.35.35,0,0,0,.33,0l.48-.28C85.7,103.64,85.71,103.55,85.62,103.5Z"/><path class="cls-22" d="M87.29,104.47l-.86-.5a.37.37,0,0,0-.34,0l-.47.28c-.1,0-.11.14,0,.19l.87.5a.35.35,0,0,0,.33,0l.48-.27C87.37,104.6,87.38,104.52,87.29,104.47Z"/><path class="cls-22" d="M89,105.46l-.87-.5a.35.35,0,0,0-.33,0l-.48.27c-.09.06-.11.15,0,.2l.86.49a.37.37,0,0,0,.34,0l.47-.27C89.09,105.6,89.1,105.51,89,105.46Z"/><path class="cls-22" d="M84.35,104.24l-.87-.5a.38.38,0,0,0-.33,0l-.48.28c-.1.06-.11.14,0,.19l.86.5a.38.38,0,0,0,.33,0l.48-.28C84.42,104.38,84.43,104.29,84.35,104.24Z"/><path class="cls-22" d="M86,105.2l-.87-.5a.39.39,0,0,0-.33,0l-.48.27c-.1.06-.11.15,0,.2l.86.5a.38.38,0,0,0,.33,0l.48-.27C86.09,105.34,86.1,105.25,86,105.2Z"/><path class="cls-22" d="M87.74,106.2l-.86-.5a.41.41,0,0,0-.34,0l-.47.28c-.1.06-.11.14,0,.19l.87.5a.38.38,0,0,0,.33,0l.48-.28C87.82,106.34,87.83,106.25,87.74,106.2Z"/><path class="cls-22" d="M82.73,105.18l-.87-.5a.35.35,0,0,0-.33,0l-.48.28c-.1,0-.11.14,0,.19l.86.5a.35.35,0,0,0,.33,0l.48-.27C82.8,105.31,82.81,105.22,82.73,105.18Z"/><path class="cls-22" d="M84.4,106.14l-.87-.5a.38.38,0,0,0-.33,0l-.48.28c-.1.06-.11.14,0,.19l.86.5a.38.38,0,0,0,.33,0l.48-.28C84.47,106.27,84.48,106.19,84.4,106.14Z"/><path class="cls-22" d="M86.12,107.14l-.86-.5a.37.37,0,0,0-.34,0l-.47.28c-.1,0-.11.14,0,.19l.87.5a.35.35,0,0,0,.33,0l.48-.27C86.2,107.27,86.21,107.18,86.12,107.14Z"/><path class="cls-22" d="M81.33,106l-.86-.5a.38.38,0,0,0-.33,0l-.48.27c-.1.06-.11.15,0,.2l.87.5a.39.39,0,0,0,.33,0l.48-.27C81.41,106.09,81.42,106,81.33,106Z"/><path class="cls-22" d="M83,106.92l-.86-.5a.41.41,0,0,0-.34,0l-.47.28c-.1.05-.11.14,0,.19l.87.5a.38.38,0,0,0,.33,0l.48-.28C83.08,107.05,83.09,107,83,106.92Z"/><path class="cls-22" d="M84.73,107.91l-.87-.5a.39.39,0,0,0-.33,0l-.48.27c-.09.06-.11.15,0,.2l.86.5a.41.41,0,0,0,.34,0l.47-.27C84.8,108.05,84.81,108,84.73,107.91Z"/><path class="cls-22" d="M86.9,102.77l-.87-.5a.35.35,0,0,0-.33,0l-.48.28c-.09,0-.1.14,0,.19l.87.5a.35.35,0,0,0,.33,0l.48-.27C87,102.9,87,102.81,86.9,102.77Z"/><path class="cls-22" d="M88.57,103.73l-.87-.5a.38.38,0,0,0-.33,0l-.48.28c-.09.06-.1.14,0,.19l.86.5a.41.41,0,0,0,.34,0l.48-.28C88.64,103.86,88.65,103.78,88.57,103.73Z"/><path class="cls-22" d="M90.3,104.73l-.87-.5a.35.35,0,0,0-.33,0l-.48.28c-.1,0-.11.14,0,.19l.86.5a.35.35,0,0,0,.33,0l.48-.27C90.37,104.86,90.38,104.78,90.3,104.73Z"/><path class="cls-22" d="M71.51,101.83l-.86-.5a.38.38,0,0,0-.33,0l-.48.27c-.1.06-.11.15,0,.2l.87.5a.39.39,0,0,0,.33,0l.48-.27C71.59,102,71.6,101.88,71.51,101.83Z"/><path class="cls-22" d="M74.91,103.79l-2.59-1.49a.38.38,0,0,0-.33,0l-.48.28c-.1,0-.11.14,0,.19l2.6,1.5a.39.39,0,0,0,.33,0l.48-.27C75,103.93,75,103.84,74.91,103.79Z"/><path class="cls-22" d="M76.58,104.76l-.87-.5a.38.38,0,0,0-.33,0l-.48.28c-.09,0-.11.14,0,.19l.86.5a.41.41,0,0,0,.34,0l.47-.28C76.65,104.89,76.66,104.81,76.58,104.76Z"/><path class="cls-22" d="M78.27,105.74l-.86-.5a.35.35,0,0,0-.33,0l-.48.28c-.1,0-.11.14,0,.19l.87.5a.35.35,0,0,0,.33,0l.48-.27C78.35,105.87,78.36,105.78,78.27,105.74Z"/><path class="cls-22" d="M79.94,106.7l-.86-.5a.41.41,0,0,0-.34,0l-.47.28c-.1.06-.11.14,0,.19l.87.5a.38.38,0,0,0,.33,0l.48-.28C80,106.83,80,106.75,79.94,106.7Z"/><path class="cls-22" d="M83.34,108.66l-2.59-1.5a.37.37,0,0,0-.34,0l-.47.27c-.1.06-.11.15,0,.2l2.59,1.49a.41.41,0,0,0,.34,0l.47-.28C83.41,108.8,83.42,108.71,83.34,108.66Z"/><path class="cls-2" d="M80.15,81a2.17,2.17,0,0,1,1.71-1,3,3,0,0,1,1.43.32l9.78,5.65A6.91,6.91,0,0,1,96,91.43v8.35a3.15,3.15,0,0,1-.48,1.82,2.92,2.92,0,0,1-1.52,1c-.69.21-1-.37-1-.76l-9.61-5.56a6.88,6.88,0,0,1-2.88-5.5V82.46c0-.13,0-.24,0-.35A.75.75,0,0,1,80.15,81Z"/><path class="cls-3" d="M92.31,102.37c1.59.92,2.88-.06,2.88-2.17V91.84a6.9,6.9,0,0,0-2.88-5.5l-9.78-5.65c-1.59-.91-2.88.06-2.88,2.18v8.36a6.91,6.91,0,0,0,2.88,5.5Z"/><path class="cls-19" d="M82.53,95.87l9.78,5.64c1.23.71,2.23-.05,2.23-1.69V91.47a5.36,5.36,0,0,0-2.23-4.27l-9.78-5.65c-1.23-.71-2.23,0-2.23,1.69V91.6A5.36,5.36,0,0,0,82.53,95.87Z"/><polygon class="cls-10" points="60.66 104.57 49.62 98.2 66.85 88.33 77.89 94.7 60.66 104.57"/><polygon class="cls-10" points="121.22 106.34 110.18 99.97 127.42 90.1 138.45 96.47 121.22 106.34"/><polygon class="cls-19" points="114.87 113.13 125.91 106.76 108.67 96.89 97.64 103.26 114.87 113.13"/><polygon class="cls-20" points="120.8 110.66 131.84 104.29 114.61 94.41 103.57 100.78 120.8 110.66"/><path class="cls-3" d="M128.51,103.88c-2.67,1.38-5.29,2.85-7.94,4.27-.2.11,0,.42.18.31,2.62-1.46,5.27-2.88,7.87-4.39A.11.11,0,0,0,128.51,103.88Z"/><path class="cls-3" d="M127.31,103.1c-2.67,1.38-5.29,2.85-7.93,4.27-.21.11,0,.42.18.31,2.62-1.46,5.27-2.88,7.86-4.39A.11.11,0,0,0,127.31,103.1Z"/><path class="cls-3" d="M126,102.41c-2.67,1.38-5.29,2.85-7.93,4.27-.21.11,0,.42.18.31,2.62-1.46,5.27-2.88,7.86-4.4C126.18,102.53,126.08,102.35,126,102.41Z"/><path class="cls-3" d="M124.76,101.63c-2.67,1.38-5.29,2.85-7.94,4.27-.2.11,0,.42.18.31,2.63-1.47,5.27-2.88,7.87-4.4C125,101.74,124.88,101.57,124.76,101.63Z"/><path class="cls-3" d="M121.86,100.32c-2.67,1.37-5.29,2.84-7.94,4.27-.2.11,0,.42.18.31,2.63-1.47,5.27-2.89,7.87-4.4A.11.11,0,0,0,121.86,100.32Z"/><path class="cls-3" d="M120.67,99.6c-2.67,1.37-5.29,2.84-7.94,4.27-.2.11,0,.42.18.31,2.62-1.47,5.27-2.89,7.87-4.4A.11.11,0,0,0,120.67,99.6Z"/><path class="cls-3" d="M118.87,98.54c-2.67,1.37-5.29,2.84-7.94,4.27-.2.11,0,.42.18.31,2.63-1.47,5.27-2.89,7.87-4.4A.11.11,0,0,0,118.87,98.54Z"/><path class="cls-3" d="M117.68,97.76c-2.67,1.37-5.29,2.84-7.94,4.27-.2.11,0,.42.18.31,2.62-1.47,5.27-2.89,7.87-4.4A.11.11,0,0,0,117.68,97.76Z"/><path class="cls-3" d="M116.32,97.07c-2.67,1.37-5.29,2.84-7.94,4.27-.2.11,0,.42.18.31,2.62-1.47,5.27-2.89,7.87-4.4A.11.11,0,0,0,116.32,97.07Z"/><path class="cls-3" d="M115.12,96.29c-2.67,1.37-5.29,2.84-7.93,4.27-.21.11,0,.42.18.31,2.62-1.47,5.27-2.89,7.86-4.4A.11.11,0,1,0,115.12,96.29Z"/><polygon class="cls-4" points="107.63 79.41 118.67 73.04 101.44 63.16 90.4 69.53 107.63 79.41"/><polygon class="cls-7" points="98.55 72.76 107.32 67.7 101.43 64.33 92.66 69.39 98.55 72.76"/><path class="cls-3" d="M115.71,73c-2.67,1.38-5.29,2.85-7.94,4.27-.2.11,0,.42.18.31,2.62-1.47,5.27-2.88,7.86-4.4A.1.1,0,0,0,115.71,73Z"/><path class="cls-3" d="M114.51,72.22c-2.67,1.38-5.29,2.85-7.93,4.27-.21.11,0,.42.18.31,2.62-1.47,5.27-2.88,7.86-4.4A.11.11,0,1,0,114.51,72.22Z"/><path class="cls-3" d="M113.15,71.53c-2.67,1.38-5.29,2.85-7.93,4.27-.21.11,0,.42.18.31,2.62-1.47,5.27-2.89,7.86-4.4A.11.11,0,1,0,113.15,71.53Z"/><path class="cls-3" d="M112,70.75c-2.67,1.37-5.29,2.84-7.94,4.27-.2.11,0,.42.18.31,2.63-1.47,5.27-2.89,7.87-4.4C112.19,70.86,112.08,70.69,112,70.75Z"/><path class="cls-3" d="M109.06,69.43c-2.67,1.38-5.29,2.85-7.94,4.27a.18.18,0,0,0,.18.31c2.63-1.46,5.27-2.88,7.87-4.39C109.29,69.55,109.18,69.37,109.06,69.43Z"/><path class="cls-3" d="M107.87,68.71c-2.67,1.38-5.29,2.85-7.94,4.27a.18.18,0,0,0,.18.31c2.62-1.46,5.27-2.88,7.87-4.39A.11.11,0,0,0,107.87,68.71Z"/><polygon class="cls-4" points="60.66 98.25 49.62 91.89 66.85 82.01 77.89 88.38 60.66 98.25"/><polygon class="cls-7" points="69.75 91.61 60.98 86.54 66.86 83.17 75.64 88.24 69.75 91.61"/><path class="cls-3" d="M52.58,91.85c2.68,1.37,5.3,2.84,7.94,4.27.2.11,0,.42-.18.31C57.72,95,55.07,93.54,52.48,92A.1.1,0,1,1,52.58,91.85Z"/><path class="cls-3" d="M53.78,91.07c2.67,1.37,5.29,2.84,7.93,4.27.21.11,0,.42-.18.31-2.62-1.47-5.27-2.89-7.86-4.4A.11.11,0,0,1,53.78,91.07Z"/><path class="cls-3" d="M55.14,90.38c2.67,1.37,5.29,2.84,7.93,4.27.21.11,0,.42-.18.31-2.62-1.47-5.27-2.89-7.86-4.4A.11.11,0,0,1,55.14,90.38Z"/><path class="cls-3" d="M56.33,89.6C59,91,61.62,92.44,64.27,93.87c.2.11,0,.42-.18.31-2.63-1.47-5.27-2.89-7.87-4.4A.11.11,0,0,1,56.33,89.6Z"/><path class="cls-3" d="M59.23,88.28c2.67,1.38,5.29,2.85,7.94,4.27.2.11,0,.42-.18.31-2.62-1.46-5.27-2.88-7.87-4.39C59,88.4,59.11,88.22,59.23,88.28Z"/><path class="cls-3" d="M60.42,87.56c2.67,1.38,5.29,2.85,7.94,4.27.2.11,0,.42-.18.31-2.62-1.46-5.27-2.88-7.86-4.4C60.2,87.68,60.3,87.5,60.42,87.56Z"/><path class="cls-2" d="M113.9,76.05l.46.51a3.12,3.12,0,0,1,.62-.46l6.81-3.93A5.84,5.84,0,0,1,127,72l10.85,6.27a1.13,1.13,0,0,1,.21.15l.5-.56a2.82,2.82,0,0,1,.11,2.16l0,0a2.55,2.55,0,0,1-1.17,1.22l-6.81,3.93a5.82,5.82,0,0,1-5.22.22l-10.86-6.27a1.73,1.73,0,0,1-.77-.8,1.27,1.27,0,0,1-.07-.12A2.72,2.72,0,0,1,113.9,76.05Z"/><path class="cls-21" d="M125.47,84.32l-10.86-6.27c-1.33-.77-1.17-2.13.37-3l6.81-3.93a5.84,5.84,0,0,1,5.23-.22l10.85,6.27c1.34.77,1.17,2.13-.37,3l-6.81,3.93A5.82,5.82,0,0,1,125.47,84.32Z"/><path class="cls-22" d="M125.62,71.53l-.88-.5a.35.35,0,0,0-.33,0l-.49.28c-.1.06-.11.15,0,.2l.87.5a.37.37,0,0,0,.34,0l.49-.28C125.7,71.67,125.71,71.58,125.62,71.53Z"/><path class="cls-22" d="M129.07,73.52,126.44,72a.37.37,0,0,0-.34,0l-.48.28c-.1.06-.12.14,0,.19L128.22,74a.37.37,0,0,0,.34,0l.48-.28C129.14,73.66,129.15,73.57,129.07,73.52Z"/><path class="cls-22" d="M130.76,74.5l-.88-.5a.35.35,0,0,0-.33,0l-.49.28c-.1.06-.11.14,0,.19l.88.51a.38.38,0,0,0,.33,0l.49-.28C130.84,74.64,130.85,74.55,130.76,74.5Z"/><path class="cls-22" d="M123,73l-.88-.51a.37.37,0,0,0-.34,0l-.48.28c-.1.06-.11.14,0,.19l.88.51a.41.41,0,0,0,.34,0l.48-.28C123.1,73.17,123.11,73.08,123,73Z"/><path class="cls-22" d="M124.72,74l-.88-.51a.35.35,0,0,0-.33,0l-.49.28c-.1,0-.11.14,0,.19l.88.51a.35.35,0,0,0,.33,0l.49-.28C124.8,74.15,124.81,74.06,124.72,74Z"/><path class="cls-22" d="M126.48,75l-.88-.51a.37.37,0,0,0-.34,0l-.49.28c-.09.06-.11.14,0,.19l.88.51a.41.41,0,0,0,.34,0l.48-.28C126.55,75.16,126.56,75.07,126.48,75Z"/><path class="cls-22" d="M128.17,76l-.88-.51a.38.38,0,0,0-.34,0l-.48.28c-.1,0-.11.14,0,.19l.87.51a.37.37,0,0,0,.34,0l.49-.28C128.25,76.14,128.26,76.05,128.17,76Z"/><path class="cls-22" d="M121.73,73.78l-.88-.51a.35.35,0,0,0-.33,0l-.49.28c-.1.05-.11.14,0,.19l.88.51a.35.35,0,0,0,.33,0l.49-.28C121.81,73.92,121.82,73.83,121.73,73.78Z"/><path class="cls-22" d="M123.43,74.76l-.88-.51a.41.41,0,0,0-.34,0l-.48.28c-.1.06-.11.15,0,.2l.88.51a.37.37,0,0,0,.34,0l.48-.28C123.5,74.9,123.51,74.81,123.43,74.76Z"/><path class="cls-22" d="M125.18,75.77l-.88-.51a.37.37,0,0,0-.34,0l-.48.28c-.1,0-.11.14,0,.19l.88.51a.37.37,0,0,0,.34,0l.49-.28C125.25,75.91,125.27,75.82,125.18,75.77Z"/><path class="cls-22" d="M126.87,76.75l-.87-.51a.41.41,0,0,0-.34,0l-.49.29c-.1,0-.11.14,0,.19l.88.51a.35.35,0,0,0,.33,0l.49-.28C127,76.89,127,76.8,126.87,76.75Z"/><path class="cls-22" d="M120.09,74.73l-.88-.51a.37.37,0,0,0-.34,0l-.48.28c-.1,0-.11.14,0,.19l.88.51a.37.37,0,0,0,.34,0l.48-.28C120.16,74.87,120.17,74.78,120.09,74.73Z"/><path class="cls-22" d="M121.78,75.71l-.88-.51a.38.38,0,0,0-.33,0l-.49.28c-.1.06-.11.15,0,.2l.88.51a.35.35,0,0,0,.33,0l.49-.28C121.86,75.84,121.87,75.76,121.78,75.71Z"/><path class="cls-22" d="M123.53,76.72l-.87-.51a.37.37,0,0,0-.34,0l-.49.28c-.1,0-.11.14,0,.19l.88.51a.38.38,0,0,0,.34,0l.48-.28C123.61,76.86,123.62,76.77,123.53,76.72Z"/><path class="cls-22" d="M125.23,77.7l-.88-.51a.41.41,0,0,0-.34,0l-.48.28c-.1.06-.11.15,0,.2l.88.51a.37.37,0,0,0,.34,0l.49-.28C125.3,77.83,125.32,77.75,125.23,77.7Z"/><path class="cls-22" d="M124.32,72.28l-.87-.5a.37.37,0,0,0-.34,0l-.49.28c-.1.06-.11.14,0,.19l.88.51a.41.41,0,0,0,.34,0l.48-.28C124.4,72.42,124.41,72.33,124.32,72.28Z"/><path class="cls-22" d="M126,73.26l-.88-.51a.37.37,0,0,0-.34,0l-.48.28c-.1.06-.11.14,0,.19l.88.51a.41.41,0,0,0,.34,0l.49-.28C126.09,73.4,126.11,73.31,126,73.26Z"/><path class="cls-22" d="M127.77,74.27l-.88-.5a.35.35,0,0,0-.33,0l-.49.28c-.1.06-.11.14,0,.19l.88.51a.38.38,0,0,0,.33,0l.49-.28C127.85,74.41,127.86,74.32,127.77,74.27Z"/><path class="cls-22" d="M129.47,75.25l-.88-.51a.37.37,0,0,0-.34,0l-.48.28c-.1.06-.11.14,0,.19l.88.51a.41.41,0,0,0,.34,0l.48-.28C129.54,75.39,129.55,75.3,129.47,75.25Z"/><path class="cls-22" d="M132.48,75.5,131.6,75a.38.38,0,0,0-.33,0l-.49.28c-.1.06-.11.15,0,.2l.88.5a.35.35,0,0,0,.33,0l.49-.28C132.56,75.63,132.57,75.55,132.48,75.5Z"/><path class="cls-22" d="M129.89,77l-.88-.5a.37.37,0,0,0-.34,0l-1.78,1c-.1.06-.11.14,0,.19l.88.51a.38.38,0,0,0,.33,0l1.79-1C130,77.13,130,77,129.89,77Z"/><path class="cls-22" d="M127,78.69l-.88-.51a.38.38,0,0,0-.34,0l-.48.28c-.1,0-.11.14,0,.19l.88.51a.41.41,0,0,0,.34,0l.49-.28C127,78.83,127,78.74,127,78.69Z"/><path class="cls-22" d="M131.19,76.24l-.88-.5a.37.37,0,0,0-.34,0l-.48.28c-.1.06-.11.15,0,.2l.88.5a.37.37,0,0,0,.34,0l.48-.28C131.26,76.38,131.27,76.29,131.19,76.24Z"/><path class="cls-22" d="M134.18,76.47l-.88-.5a.37.37,0,0,0-.34,0l-.48.28c-.1.06-.11.15,0,.2l.88.5a.37.37,0,0,0,.34,0l.48-.28C134.25,76.61,134.26,76.52,134.18,76.47Z"/><path class="cls-22" d="M137.63,78.46,135,77a.35.35,0,0,0-.33,0l-.49.28c-.1.06-.11.14,0,.19L136.78,79a.37.37,0,0,0,.34,0l.48-.28C137.7,78.6,137.71,78.51,137.63,78.46Z"/><path class="cls-22" d="M131.59,78l-.88-.51a.37.37,0,0,0-.34,0l-.49.28c-.09.06-.11.14,0,.19l.88.51a.41.41,0,0,0,.34,0l.48-.28C131.66,78.11,131.67,78,131.59,78Z"/><path class="cls-22" d="M133.28,79l-.88-.51a.38.38,0,0,0-.34,0l-.48.28c-.1.05-.11.14,0,.19l.88.51a.37.37,0,0,0,.34,0l.49-.28C133.36,79.09,133.37,79,133.28,79Z"/><path class="cls-22" d="M135,80l-.88-.51a.35.35,0,0,0-.33,0l-.49.28c-.1.06-.11.14,0,.19l.88.51a.38.38,0,0,0,.33,0l.49-.28C135.11,80.1,135.12,80,135,80Z"/><path class="cls-22" d="M130.29,78.72l-.88-.51a.37.37,0,0,0-.34,0l-.48.28c-.1,0-.11.14,0,.19l.88.51a.37.37,0,0,0,.34,0l.48-.28C130.36,78.86,130.37,78.77,130.29,78.72Z"/><path class="cls-22" d="M132,79.7l-.87-.51a.41.41,0,0,0-.34,0l-.49.28c-.1.06-.11.15,0,.2l.88.51a.35.35,0,0,0,.33,0l.49-.28C132.06,79.84,132.07,79.75,132,79.7Z"/><path class="cls-22" d="M133.74,80.71l-.88-.51a.37.37,0,0,0-.34,0l-.48.28c-.1,0-.11.14,0,.19l.88.51a.37.37,0,0,0,.34,0l.48-.28C133.81,80.85,133.82,80.76,133.74,80.71Z"/><path class="cls-22" d="M128.64,79.67l-.87-.51a.37.37,0,0,0-.34,0l-.49.28c-.1.05-.11.14,0,.19l.88.51a.38.38,0,0,0,.34,0l.48-.28C128.72,79.81,128.73,79.72,128.64,79.67Z"/><path class="cls-22" d="M130.34,80.65l-.88-.51a.41.41,0,0,0-.34,0l-.48.28c-.1.06-.11.15,0,.2l.88.51a.37.37,0,0,0,.34,0l.48-.28C130.41,80.78,130.43,80.7,130.34,80.65Z"/><path class="cls-22" d="M132.09,81.66l-.88-.51a.35.35,0,0,0-.33,0l-.49.28c-.1,0-.11.14,0,.19l.88.51a.35.35,0,0,0,.33,0l.49-.28C132.17,81.8,132.18,81.71,132.09,81.66Z"/><path class="cls-22" d="M125.54,79.48l-.88-.51a.37.37,0,0,0-.34,0l-.49.28c-.1.06-.11.14,0,.19l.88.51a.41.41,0,0,0,.34,0l.48-.28C125.61,79.62,125.62,79.53,125.54,79.48Z"/><path class="cls-22" d="M127.23,80.46l-.88-.51a.38.38,0,0,0-.34,0l-.48.28c-.1,0-.11.14,0,.19l.88.51a.37.37,0,0,0,.34,0l.49-.28C127.3,80.6,127.32,80.51,127.23,80.46Z"/><path class="cls-22" d="M128.92,81.44l-.87-.51a.41.41,0,0,0-.34,0l-.49.28c-.1.06-.11.15,0,.2l.88.51a.38.38,0,0,0,.34,0l.48-.28C129,81.58,129,81.49,128.92,81.44Z"/><path class="cls-22" d="M130.68,82.45l-.88-.51a.37.37,0,0,0-.34,0l-.48.28c-.1.05-.11.14,0,.19l.88.51a.37.37,0,0,0,.34,0l.48-.28C130.75,82.59,130.76,82.5,130.68,82.45Z"/><path class="cls-22" d="M132.88,77.22l-.88-.5a.35.35,0,0,0-.33,0l-.49.28c-.1.06-.11.14,0,.19l.87.51a.41.41,0,0,0,.34,0l.49-.28C133,77.36,133,77.27,132.88,77.22Z"/><path class="cls-22" d="M134.58,78.2l-.88-.51a.37.37,0,0,0-.34,0l-.48.28c-.1.06-.11.14,0,.19l.88.51a.41.41,0,0,0,.34,0l.48-.28C134.65,78.34,134.66,78.25,134.58,78.2Z"/><path class="cls-22" d="M136.33,79.21l-.88-.5a.37.37,0,0,0-.34,0l-.48.28c-.1.06-.11.14,0,.19l.88.51a.37.37,0,0,0,.34,0l.48-.28C136.4,79.35,136.42,79.26,136.33,79.21Z"/><path class="cls-2" d="M107.34,64a1.72,1.72,0,0,1,1.4-.83h0a1.85,1.85,0,0,1,1,.3l12.83,7.33a4.75,4.75,0,0,1,1.85,2.51c.14.43,2.6,6.21,3.32,8.12a3.52,3.52,0,0,1,.33,1.69h0l0,.16c-.19.86-1.29.91-1.29.91l-.1-.79-.09,0L115,76.71a8.56,8.56,0,0,1-2.82-3.78s-2.72-5.81-3.58-7.63l-.24.23S107.06,64.57,107.34,64Z"/><path class="cls-3" d="M114.14,77.24l11.57,6.68c1.17.67,2.05.37,1.19-1.93-.72-1.91-3.18-7.69-3.33-8.12a4.67,4.67,0,0,0-1.85-2.5L108.9,64c-.7-.4-1.49-.48-1.64.23a1.83,1.83,0,0,0,.24,1l3.82,8.16A8.59,8.59,0,0,0,114.14,77.24Z"/><polygon class="cls-23" points="122.78 83.31 124.61 84.37 123.93 82.69 122.1 81.64 122.78 83.31"/><polygon class="cls-22" points="122.1 81.64 122.4 81.46 124.22 82.52 123.93 82.69 122.1 81.64"/><polygon class="cls-24" points="124.61 84.37 124.9 84.2 124.22 82.52 123.93 82.69 124.61 84.37"/><polygon class="cls-23" points="114.92 78.76 116.75 79.81 116.08 78.13 114.25 77.08 114.92 78.76"/><polygon class="cls-22" points="114.25 77.08 114.54 76.9 116.37 77.96 116.08 78.13 114.25 77.08"/><polygon class="cls-24" points="116.75 79.81 117.05 79.64 116.37 77.96 116.08 78.13 116.75 79.81"/><path class="cls-6" d="M74,102.49c.82-.47,1.58-2.23,2.92-3.53S78.6,97.18,79,97.18s.82.54,0,1.4a5.56,5.56,0,0,0-1.13,1.69,6.86,6.86,0,0,0,2.93-1c1.54-1,2.3-1.71,3.12-1s-.74,3.41-2.32,4.23-4,1.1-4.55,1.44a10.92,10.92,0,0,1-2.09.76Z"/><path class="cls-18" d="M49.46,160.66a23.1,23.1,0,0,1-1.67,3.58c-1,1.7.11,3,1.44,3.42s3.4.16,6.72-1.6,4.76-3.52,4.88-4.65-1.55-2.79-4.41-1.9a39.84,39.84,0,0,0-4.32,1.57Z"/><path class="cls-18" d="M30,144.9s-2.91,1.75-4,2.4c0,.47.57,1.82,2.18,4.69s4.48,4.38,6.84,2.84,4-4,2-4.66a5.87,5.87,0,0,0-3.67,0L32,146.9A3.22,3.22,0,0,0,30,144.9Z"/><path class="cls-2" d="M26,147.3a4,4,0,0,1,3.36,2.87,12.36,12.36,0,0,0,2.93,5.21c-2.33-.28-3.05-1.08-4.5-3.81C26.59,149.26,25.37,147.75,26,147.3Z"/><path class="cls-2" d="M32.91,149.14c-.14,0,.24,1,0,1.89s-.12,1.63.51,1,.27-2,.27-2S33.51,149.12,32.91,149.14Z"/><path class="cls-2" d="M54.12,160.28a9.15,9.15,0,0,1,2.48,1.83c.82,1,1.71.19,1.12-.86a4,4,0,0,0-2.1-1.48A4.44,4.44,0,0,0,54.12,160.28Z"/><path class="cls-2" d="M38.65,109.63S36,110.83,35,115.92c-.41,2.29.35,5.65,1.32,8.66A62.54,62.54,0,0,0,39,131.39a14.53,14.53,0,0,0-5.46,4.92,100,100,0,0,0-4.91,9.45,5.13,5.13,0,0,0,1.45,1.82,4.55,4.55,0,0,0,2.61.91S39,141,41.93,137.27s4.16-3.43,4-6.06c-.09-2.26.12-13.47.12-13.47Z"/><path class="cls-3" d="M52.37,116a58.83,58.83,0,0,1,5.81,10.36,119.3,119.3,0,0,1,4,11.64,5,5,0,0,1-.31,3.39c-1.15,2.49-3.31,7.21-4.92,10.79A67.45,67.45,0,0,0,53.57,162c-1,1.24-3.73,1.15-4.44,0,0-3.39-.58-4.16,0-10.43.8-8.71,5.44-11.1,5.44-11.1A14,14,0,0,1,51.63,134C48,132.4,46,129,44.74,126.64,39.44,125,32.61,121.52,35,114c.48-1.54,2.2-5.41,3.5-5.75C43.57,106.89,52.37,116,52.37,116Z"/><path class="cls-6" d="M59.52,73.25A5.11,5.11,0,0,0,54,72a4.55,4.55,0,0,0-3.31,3,13.31,13.31,0,0,0-.43,3c.22,1.81,1.52,4.08,2.09,5.31a3.78,3.78,0,0,0,4.1,2.29c2.6-.38,3.2-3.62,3.9-5.75C61.18,77.44,61.33,75.26,59.52,73.25Z"/><path class="cls-19" d="M47.76,84s-3.3-3.92-6.53-1.84c-4,2.6-4.54,6.84-6.73,9.36s-2.57,3.14-3.05,4.86a1.93,1.93,0,0,0,.83,2.28c.35.27,1.06,2.76,1.52,3.5a20.37,20.37,0,0,0,3.57,3.56S48.52,86.33,47.76,84Z"/><path class="cls-18" d="M52.11,85.71c-4.78-2.87-6.08-4.15-10-1.86-2.41,1.42-4.06,7.21-4.38,10.35s-2.16,9.59-1.68,11.08c.39,1.23,1.88,1.62-.09,2.94-1.56,1-.36,1.8.09,3.12.84,2.47,4.49,6.23,8.83,7s7.78.52,8.72-.49,1.08-2,0-3.59c-.71-1.08.57-2.51,1.3-3.83s4.84-9.87,6-14.6S57.54,89,52.11,85.71Z"/><path class="cls-6" d="M51.56,76.82a28.83,28.83,0,0,1-1.28,3.92,7.48,7.48,0,0,1-2.52,2.76s-2,2.21.53,3.77,6.11-.33,6.11-.33a12.55,12.55,0,0,1,1.65-3.88C57.08,81.31,51.56,76.82,51.56,76.82Z"/><path class="cls-2" d="M61,72.82a2.27,2.27,0,0,0-3.78-1.93c-.7-2.56-4.47-3.09-6.54-2.11a2.86,2.86,0,0,0-1.54,2.31,2.17,2.17,0,0,0-2.51,1.6,3,3,0,0,0,.71,2.16,1.89,1.89,0,0,0-.88,1.9c.36,2.89,3.54,4.6,3.43,7.33a26.09,26.09,0,0,0,4.47-1c1.77-.52,4.51-2.55,5-4.09,1.28.19,1.85-.8,1.85-1.78C63,76.82,63.36,73.81,61,72.82Z"/><path class="cls-6" d="M55.32,80.22a2.21,2.21,0,0,0,.89,3.07l1.77-2S56.59,78,55.32,80.22Z"/><path class="cls-19" d="M40.52,110.28s2.59,3.91,5.57,4.74a16.49,16.49,0,0,0,4.19.78A11.84,11.84,0,0,0,46.39,113C44.19,112.18,40.52,110.28,40.52,110.28Z"/><path class="cls-19" d="M55.61,90.68C54,92,52.65,95.33,52,98.32s-.47,5.9,1,6.91a4.1,4.1,0,0,0,4.1.82c.51,1.15,2.86,3.07,6.35,5.12,5.88,0,9.8-5.48,13.1-6.91.54-1.07,0-3.25-1.35-3.25a52,52,0,0,1-5.6,1.42,18.94,18.94,0,0,0-4.33,1.29S63,94.2,62,92.59C59.64,88.76,57.39,89.2,55.61,90.68Z"/><path class="cls-19" d="M47.56,82.67c-1.08.22-2.71,2.1-.55,4.38s6,1.18,7.11.84l1.06-.34s0-1.67-2.37-2c-1.46-.21-3.59-1-4.1-2S48.18,82.55,47.56,82.67Z"/><path class="cls-10" d="M3.78,117.74a2.5,2.5,0,0,1,3.47-.35c2.19,1.37,9.22,5.47,9.22,5.47l.31,4.58Z"/><path class="cls-8" d="M3.78,156.44c2.28-1.55,4.7-2.95,7-4.4A22.54,22.54,0,0,1,15,149.43a1.35,1.35,0,0,1,1.7.43c.44.74-.08,1.16-.68,1.5-1.63.94-3.29,1.84-4.93,2.78-2.45,1.41-4.86,2.88-7.26,4.37Z"/><path class="cls-8" d="M18.6,151.47a1.34,1.34,0,0,1,1.67-.53c1.53.41,3,1.58,4.42,2.33,3,1.65,6.22,3.19,9.11,5.09l0,1.93q-4.63-2.55-9.37-4.9c-1.69-.84-3.4-1.63-5.09-2.46C18.75,152.63,18.21,152.24,18.6,151.47Z"/><path class="cls-1" d="M1.37,156.75q.27-7.47,1.17-14.79c0-.21.17-.28.28-.2L4,142.6a.31.31,0,0,1,.1.15c0-.19.24-.18.26.07.35,5.19.43,10.43.6,15.63.08,2.38,1,6.24-2.11,6.21C.5,164.63,1.29,159,1.37,156.75Z"/><path class="cls-1" d="M35.61,158.33q-.27-7.47-1.16-14.8c0-.2-.17-.28-.29-.19l-1.16.84a.21.21,0,0,0-.09.15c0-.19-.25-.18-.26.06-.36,5.19-.43,10.44-.61,15.64-.08,2.37-1,6.23,2.12,6.2C36.48,166.21,35.69,160.62,35.61,158.33Z"/><path class="cls-8" d="M3.29,158.94A1.35,1.35,0,0,1,5,158.41a22.77,22.77,0,0,1,4.41,2.34c3,1.65,6.22,3.19,9.11,5.08l0,1.93c-3.08-1.69-6.2-3.34-9.36-4.9-1.69-.84-3.41-1.62-5.1-2.46C3.43,160.1,2.89,159.71,3.29,158.94Z"/><path class="cls-8" d="M20.55,165.57c2.29-1.54,4.7-2.94,7-4.39a22.34,22.34,0,0,1,4.26-2.61,1.35,1.35,0,0,1,1.7.42c.44.74-.07,1.17-.67,1.51-1.64.94-3.3,1.83-4.93,2.77-2.45,1.41-4.87,2.88-7.26,4.38Z"/><path class="cls-1" d="M18.48,152.15l2-1.65c.35,5.18.85,12.26,1,17.45.08,2.37,1,6.23-2.12,6.2-2.32,0-1.53-5.62-1.45-7.9C18.08,161.57,17.94,156.74,18.48,152.15Z"/><path class="cls-8" d="M1.75,141.57h1.7l10.81-6.24a6.32,6.32,0,0,1,5.65.23l12.6,7.23,2.37.23v2a1.92,1.92,0,0,1,0,.24v.21h0a1.82,1.82,0,0,1-1,1.16l-11.54,6.66a6.32,6.32,0,0,1-5.65-.23L3.13,145.25a2.22,2.22,0,0,1-1.36-2h0S1.8,141.78,1.75,141.57Z"/><path class="cls-9" d="M22.37,151.11l11.54-6.67c1.44-.83,1.26-2.3-.4-3.26l-13.6-7.75a6.32,6.32,0,0,0-5.65-.23L2.72,139.86c-1.44.83-1.26,2.3.41,3.26l13.59,7.75A6.32,6.32,0,0,0,22.37,151.11Z"/><path class="cls-10" d="M26.53,145.13c-2.68,1.44-5.74,3.79-8.92,2.77-2.78-.89-5.44-2.86-7.9-4.39a19.62,19.62,0,0,1-4.62-3.6A14.27,14.27,0,0,1,8.46,137c2.65-1.89,9.63-5.37,10.57-5.29a6.51,6.51,0,0,1,1.28.23,32.72,32.72,0,0,1,5,2.07,26.74,26.74,0,0,1,6.19,3.74,7.86,7.86,0,0,1,1.79,1.76C33.21,142.37,28.67,144,26.53,145.13Z"/><path class="cls-11" d="M33.25,143.43c-1.67,1.23-4.71,2.5-6.23,3.43s-4.81,3.23-6.57,3.64a8,8,0,0,1-4.45-.95c-2-1-3.94-2.23-5.89-3.36-1.6-.92-3.88-1.74-5.06-3.21a2.34,2.34,0,0,1,0-3.07,19.62,19.62,0,0,0,4.62,3.6c2.46,1.53,5.12,3.5,7.9,4.39,3.18,1,6.24-1.33,8.92-2.77,2.14-1.16,6.68-2.76,6.79-5.64a1.36,1.36,0,0,1,.13.24C33.86,140.61,34.12,142.79,33.25,143.43Z"/><path class="cls-8" d="M.62,112.33c-1,.54-.65,2.23.18,5.89a106.27,106.27,0,0,1,1,11.37c.08,2.95-.13,11.87,0,13.68s1.64,1.95,1.74.43.8-12,.77-15.19-.43-10.91-1.11-13.64S1.49,111.87.62,112.33Z"/><path class="cls-1" d="M2.13,116.79l14.06,8.1.59,10.89L3.21,127.94A44.28,44.28,0,0,0,3,121.53C2.65,119.41,2.13,116.79,2.13,116.79Z"/><polygon class="cls-9" points="3.25 116.08 2.13 116.79 16.19 124.89 17.31 124.19 3.25 116.08"/><path class="cls-8" d="M15.27,120.66c-1,.54-.65,2.23.18,5.89a106.25,106.25,0,0,1,.95,11.38c.08,2.94-.14,11.87,0,13.68s1.63,1.95,1.74.42.79-12,.77-15.19-.43-10.9-1.11-13.64S16.14,120.2,15.27,120.66Z"/><path class="cls-10" d="M153.34,114.9a2.49,2.49,0,0,0-3.47-.34c-2.19,1.36-9.22,5.46-9.22,5.46l-.31,4.58Z"/><path class="cls-8" d="M153.34,153.6c-2.28-1.54-4.7-2.94-7-4.4-1.33-.84-2.76-2.1-4.26-2.6a1.35,1.35,0,0,0-1.7.42c-.44.74.08,1.16.67,1.5,1.64.94,3.3,1.84,4.94,2.78,2.44,1.41,4.86,2.88,7.26,4.37Z"/><path class="cls-8" d="M138.52,148.63a1.35,1.35,0,0,0-1.68-.53c-1.52.41-3,1.58-4.41,2.33-3,1.65-6.22,3.19-9.11,5.09l0,1.93q4.63-2.55,9.36-4.9c1.7-.84,3.41-1.63,5.1-2.46C138.37,149.79,138.91,149.4,138.52,148.63Z"/><path class="cls-1" d="M155.74,153.92q-.27-7.48-1.16-14.8c0-.21-.17-.28-.28-.2l-1.16.84a.31.31,0,0,0-.1.15c0-.19-.24-.18-.26.07-.35,5.19-.43,10.43-.6,15.63-.08,2.38-1,6.24,2.11,6.21C156.62,161.8,155.83,156.2,155.74,153.92Z"/><path class="cls-1" d="M121.51,155.49q.27-7.47,1.16-14.8c0-.2.17-.27.29-.19l1.16.84a.26.26,0,0,1,.09.15c.05-.19.24-.18.26.07.36,5.18.43,10.43.61,15.63.08,2.37,1,6.24-2.12,6.21C120.64,163.37,121.43,157.78,121.51,155.49Z"/><path class="cls-8" d="M153.83,156.1a1.36,1.36,0,0,0-1.67-.53,22.48,22.48,0,0,0-4.41,2.34c-3,1.65-6.22,3.19-9.11,5.08l0,1.93c3.09-1.69,6.21-3.34,9.37-4.9,1.69-.84,3.41-1.62,5.1-2.46C153.69,157.26,154.23,156.87,153.83,156.1Z"/><path class="cls-8" d="M136.57,162.74c-2.29-1.55-4.71-3-7-4.4a22.34,22.34,0,0,0-4.26-2.61,1.35,1.35,0,0,0-1.7.42c-.44.74.07,1.17.67,1.51,1.64.94,3.3,1.83,4.93,2.77,2.45,1.41,4.86,2.88,7.26,4.38Z"/><path class="cls-1" d="M138.64,149.32l-2-1.66c-.36,5.18-.86,12.26-1,17.45-.08,2.37-1,6.23,2.11,6.2,2.33,0,1.54-5.61,1.46-7.9C139,158.73,139.18,153.9,138.64,149.32Z"/><path class="cls-8" d="M155.37,138.73h-1.71l-10.8-6.24a6.31,6.31,0,0,0-5.65.23L124.61,140l-2.38.23,0,2a1.92,1.92,0,0,0,0,.24v.21h0a1.82,1.82,0,0,0,.95,1.16l11.54,6.66a6.32,6.32,0,0,0,5.65-.23L154,142.41a2.22,2.22,0,0,0,1.36-2h0S155.32,138.94,155.37,138.73Z"/><path class="cls-9" d="M134.75,148.27l-11.54-6.66c-1.44-.84-1.26-2.31.4-3.27l13.6-7.75a6.31,6.31,0,0,1,5.65-.23L154.4,137c1.44.83,1.26,2.3-.41,3.26L140.4,148A6.32,6.32,0,0,1,134.75,148.27Z"/><path class="cls-10" d="M130.59,142.29c2.68,1.44,5.73,3.8,8.92,2.77,2.78-.89,5.44-2.86,7.9-4.39a19.83,19.83,0,0,0,4.62-3.6,14.27,14.27,0,0,0-3.37-2.93c-2.65-1.89-9.63-5.37-10.57-5.29a6.51,6.51,0,0,0-1.28.23,32.72,32.72,0,0,0-5,2.07,26.74,26.74,0,0,0-6.19,3.74,7.86,7.86,0,0,0-1.79,1.76C123.91,139.53,128.45,141.13,130.59,142.29Z"/><path class="cls-11" d="M123.86,140.59c1.68,1.23,4.72,2.51,6.24,3.43s4.81,3.24,6.57,3.64a8,8,0,0,0,4.45-.94c2-1,3.94-2.24,5.89-3.37,1.6-.92,3.88-1.74,5.06-3.21a2.36,2.36,0,0,0,0-3.07,19.83,19.83,0,0,1-4.62,3.6c-2.46,1.53-5.12,3.5-7.9,4.39-3.19,1-6.24-1.33-8.92-2.77-2.14-1.16-6.68-2.76-6.79-5.64a1.83,1.83,0,0,0-.13.24C123.26,137.77,123,140,123.86,140.59Z"/><path class="cls-8" d="M156.5,109.49c1,.54.65,2.23-.18,5.89a103.73,103.73,0,0,0-.95,11.37c-.09,2.95.13,11.87,0,13.69s-1.64,1.94-1.74.42-.8-12-.77-15.19.43-10.91,1.11-13.64S155.63,109,156.5,109.49Z"/><path class="cls-1" d="M155,114l-14.06,8.1-.59,10.89,13.57-7.84a44.13,44.13,0,0,1,.26-6.4C154.47,116.58,155,114,155,114Z"/><polygon class="cls-9" points="153.87 113.24 154.99 113.95 140.93 122.05 139.81 121.35 153.87 113.24"/><path class="cls-8" d="M141.85,117.82c1,.54.65,2.23-.18,5.89a106.25,106.25,0,0,0-.95,11.38c-.08,2.94.13,11.87,0,13.68s-1.64,1.95-1.74.42-.8-12-.77-15.19.43-10.9,1.11-13.64S141,117.36,141.85,117.82Z"/><polygon class="cls-15" points="112.14 90.95 116.84 88.15 111.41 84.9 106.7 87.71 112.14 90.95"/><polygon class="cls-25" points="112.14 93.8 112.14 90.95 116.84 88.15 116.84 90.99 112.14 93.8"/><polygon class="cls-16" points="106.7 90.55 106.7 87.71 112.14 90.95 112.14 93.8 106.7 90.55"/><path class="cls-15" d="M113.48,90.15l-1.34.8-1.31-.78a5.24,5.24,0,0,0,2.65,0Z"/><path class="cls-26" d="M113.48,90.15a1.92,1.92,0,0,1-.89,0,1,1,0,0,1-.53-.44,1.19,1.19,0,0,1-.45.4,3,3,0,0,1-.74.12,3.33,3.33,0,0,0,1.27.2A3.6,3.6,0,0,0,113.48,90.15Z"/><polygon class="cls-12" points="91.44 70.33 86.73 67.53 92.17 64.28 96.87 67.09 91.44 70.33"/><polygon class="cls-10" points="91.44 73.17 91.44 70.33 86.73 67.53 86.73 70.37 91.44 73.17"/><polygon class="cls-11" points="96.87 69.93 96.87 67.09 91.44 70.33 91.44 73.17 96.87 69.93"/><path class="cls-27" d="M90.09,69.53l1.35.8,1.31-.78a5.28,5.28,0,0,1-2.66,0Z"/><path class="cls-28" d="M90.09,69.53a1.92,1.92,0,0,0,.89,0,1,1,0,0,0,.53-.44,1.29,1.29,0,0,0,.45.4,3.09,3.09,0,0,0,.74.12,3.24,3.24,0,0,1-1.26.2A3.69,3.69,0,0,1,90.09,69.53Z"/><path class="cls-20" d="M87.63,88.67a1.58,1.58,0,0,0-.76-1.39.83.83,0,0,0-1,.1l-.92-1.65a1.7,1.7,0,0,1,2.17-.13,4.32,4.32,0,0,1,2.14,3.83c0,1.88-1.7,1.46-1.56,3.34l-1.47-.85C86,89.71,87.63,89.81,87.63,88.67Zm-1.7,5.38c0-.8.42-1.16,1-.83a2.41,2.41,0,0,1,1,2c0,.79-.43,1.14-1,.81A2.37,2.37,0,0,1,85.93,94.05Z"/><path class="cls-23" d="M126.37,89.21a.68.68,0,0,0-.3-.56.18.18,0,0,0-.17,0h0l-1,.55.41.79.93-.53A.29.29,0,0,0,126.37,89.21Z"/><path class="cls-4" d="M124.87,89.39a.69.69,0,0,0,.29.56c.16.1.3,0,.3-.22a.7.7,0,0,0-.3-.56C125,89.07,124.87,89.17,124.87,89.39Z"/><polygon class="cls-4" points="118.47 92.91 125 89.14 125.35 89.97 118.86 93.72 118.47 92.91"/><path class="cls-23" d="M118.85,93.72a.25.25,0,0,0,.11-.24.69.69,0,0,0-.29-.56.19.19,0,0,0-.19,0h0l-1.12.9a.71.71,0,0,1,.16.34l1.35-.43Z"/><path class="cls-4" d="M117.35,93.81l-.81.65,1-.31C117.51,94,117.51,93.87,117.35,93.81Z"/><path class="cls-23" d="M95.07,104.89a.68.68,0,0,1,.3-.56.18.18,0,0,1,.17,0h0l1,.56-.41.79-.93-.53A.29.29,0,0,1,95.07,104.89Z"/><path class="cls-4" d="M96.57,105.07a.69.69,0,0,1-.29.56c-.16.1-.29,0-.29-.22a.69.69,0,0,1,.29-.56C96.44,104.75,96.57,104.85,96.57,105.07Z"/><polygon class="cls-4" points="102.97 108.58 96.44 104.82 96.09 105.65 102.59 109.4 102.97 108.58"/><path class="cls-23" d="M102.59,109.39c-.07,0-.11-.11-.11-.23a.69.69,0,0,1,.29-.56.18.18,0,0,1,.2,0h0l1.11.9a.71.71,0,0,0-.16.34l-1.34-.43Z"/><path class="cls-4" d="M104.09,109.49l.81.64-1-.3C103.93,109.7,103.93,109.55,104.09,109.49Z"/><path class="cls-23" d="M73.9,61.81a.73.73,0,0,1,.29-.57.19.19,0,0,1,.18,0h0l1,.55-.41.79L74,62A.29.29,0,0,1,73.9,61.81Z"/><path class="cls-4" d="M75.4,62a.71.71,0,0,1-.29.56c-.16.09-.3,0-.3-.22a.74.74,0,0,1,.3-.57C75.27,61.67,75.4,61.77,75.4,62Z"/><polygon class="cls-4" points="81.8 65.5 75.27 61.74 74.92 62.56 81.41 66.32 81.8 65.5"/><path class="cls-23" d="M81.42,66.31c-.07,0-.11-.11-.11-.23a.69.69,0,0,1,.29-.56.17.17,0,0,1,.19,0h0s.6.47,1.12.9a.73.73,0,0,0-.16.33l-1.35-.42Z"/><path class="cls-4" d="M82.92,66.41l.81.64-1-.31C82.76,66.61,82.76,66.47,82.92,66.41Z"/></g></g></svg>