<svg xmlns="http://www.w3.org/2000/svg" viewBox="0 0 120.88 105.7"><defs><style>.cls-1{fill:#ff5e4c;}.cls-2{fill:#778dfd;}.cls-3{fill:#f9ab43;}.cls-4{fill:#8da3ff;}.cls-5{fill:#ffb65f;}.cls-6{fill:#2c1d1b;}.cls-7{fill:#3f2a28;}.cls-8{fill:#eddcda;}.cls-9{fill:#ffc9b6;}.cls-10{fill:#ff9d27;}.cls-11{fill:#f4ebea;}.cls-12{fill:#f9f4f4;}.cls-13{fill:#f98f38;}.cls-14{fill:#ffb9a4;}.cls-15{fill:#f78b43;}.cls-16{fill:#e3652f;}.cls-17{fill:#fff;}.cls-18{fill:#74cace;}</style></defs><title>vision-vector</title><g id="Capa_2" data-name="Capa 2"><g id="Layer_1" data-name="Layer 1"><path class="cls-1" d="M113.12,24.34a46.14,46.14,0,0,0-7,2.76c-2.76-.76-7.74-1.57-7.74-1.57A41.58,41.58,0,0,0,101,29.92a42.62,42.62,0,0,0-3.82,3.87c2.3.14,5.33.09,7.64,0a28.83,28.83,0,0,0,4.31,4.37,17,17,0,0,0,3.17-4.5c1-.08,6.58-.91,7.49-1.23A73.35,73.35,0,0,0,112.52,29C112.72,28.51,113.42,25.54,113.12,24.34Zm-1.75,4.77c1.62.68,5.88,2.63,6.79,3.14-1.77.21-5.54.86-6.53.93-.22.35-1.47,2.32-1.71,2.72-.14.23-.55,1.18-.88,1.3a45,45,0,0,1-3.72-3.85c-2.07,0-5,.06-7,.11,1.08-1,2.29-2.28,3.54-3.34a24.19,24.19,0,0,1-2.62-4.18c1.68.38,6.2,1.4,7.26,1.7,1.09-.42,4.7-2.17,6-2.65A15.77,15.77,0,0,1,111.37,29.11Z"/><path class="cls-2" d="M105.37,25.07a10.63,10.63,0,0,0-2.66-2.9.11.11,0,0,0-.14.08c-.09.61,1.81,3,2.5,3.21C105.31,25.53,105.45,25.27,105.37,25.07Z"/><path class="cls-2" d="M106.21,21.37c0-.44-.73-.45-.7,0a11.3,11.3,0,0,0,.47,3,.25.25,0,0,0,.45-.06A15.92,15.92,0,0,0,106.21,21.37Z"/><path class="cls-2" d="M120.76,28.19a25.11,25.11,0,0,0-6,.39.15.15,0,0,0,0,.28,18.7,18.7,0,0,0,6-.35C120.9,28.46,120.94,28.22,120.76,28.19Z"/><path class="cls-2" d="M118.73,25.91a11.12,11.12,0,0,0-4.24,1.29c-.21.12-.06.4.16.37a22.82,22.82,0,0,0,4.14-1.2C119,26.28,119,25.89,118.73,25.91Z"/><path class="cls-2" d="M97.35,30.76a8.29,8.29,0,0,0-2.33.15,3.49,3.49,0,0,0-2,.66.21.21,0,0,0,.09.35,4,4,0,0,0,1.91-.29A15.55,15.55,0,0,0,97.38,31,.11.11,0,0,0,97.35,30.76Z"/><path class="cls-2" d="M112.35,36.23c-.15-.2-.52-.09-.44.19a22.07,22.07,0,0,0,2,4c.16.18.44,0,.39-.23A21.2,21.2,0,0,0,112.35,36.23Z"/><path class="cls-2" d="M114.22,36.12c-.26-.33-.85.12-.59.46a21,21,0,0,0,2,2.41.32.32,0,0,0,.46-.35A22.34,22.34,0,0,0,114.22,36.12Z"/><path class="cls-2" d="M98.61,29.12A4.45,4.45,0,0,0,96.83,29a8,8,0,0,0-1.76.12h0c-.12,0-.17.23,0,.27a7,7,0,0,0,1.76.23,4.27,4.27,0,0,0,1.78-.12A.18.18,0,0,0,98.61,29.12Z"/><path class="cls-3" d="M77.37,17.34c-6.07-1.75-12.91-1.38-17.3,1-4.23,2.25-6,6.24-2.85,9.71,3,3.3,9.62,4.51,14.86,3.49,4.89-.95,8.77-4.23,6-7.49A9.51,9.51,0,0,0,71,21.16c-2.4.07-4.54,1.12-4.75,2.51s1.73,3,4.3,3c2,0,3.11-1.18,2.15-2.25-.17-.19-.69-.09-.55.11,1.16,1.51-2,2.07-3.77,1-1.12-.68-1.39-1.62-.82-2.37,1-1.35,3.93-1.8,6.43-1,6.09,2,4.18,6.43.06,8a18.06,18.06,0,0,1-13.35-.55c-4.22-2.15-4.8-5.73-3-8.23,4.06-5.68,18.42-6.21,25.63-.41,3.32,2.67,3.9,5.67,2.52,8.45a14.32,14.32,0,0,1-9,7.33c-4.75,1.41-10.82.7-15.69-1.24-5.53-2.21-10.35-5.38-11.85-8.93-.06-.16-.46-.11-.4.05,1.48,4.07,6.66,7.76,13.39,10,5.68,1.89,12.23,2.06,16.94.07,5.13-2.16,8.81-6.52,8.51-10.48C87.44,22.71,83.24,19,77.37,17.34Z"/><path class="cls-2" d="M68.28,47.62a24.24,24.24,0,0,1,5.46,2.31,15.24,15.24,0,0,1,4,3.15C81.44,58.55,73.9,63,71.3,64.29c-3.82,1.95-7.67,2.42-12.21,3.26-6.42,1.2-12.45,5.7-17.2,8.44-1.14,0-5-2.27-6.3-3.09-.26-.16-.55-.31-.82-.47L34,72c-1.43-.78-5.3-3-5.36-3.64,4.76-2.74,12.55-6.22,14.62-9.93,1.47-2.62,2.27-4.85,5.64-7C51.16,49.84,58.8,45.48,68.28,47.62Zm-32,23.94c.36.2,3.78,2.1,5.59,3a70.76,70.76,0,0,1,7.94-4.84c-1.26-.62-2.4-1.33-3.57-2-.54-.31-1.15-.6-1.67-.91s-1-.65-1.58-1c-1.16-.68-2.38-1.34-3.46-2.07a77,77,0,0,1-8.38,4.58C32.63,69.38,35.94,71.35,36.27,71.56Zm9.1-14A14.77,14.77,0,0,1,40.6,63c1.33.62,2.54,1.34,3.78,2,.55.3,1.16.58,1.7.89s1,.66,1.54,1c1.18.72,2.42,1.41,3.51,2.18a36.79,36.79,0,0,1,9.47-2.75c4.65-.73,8.72-1.8,12.1-4a9.31,9.31,0,0,0,4-5.1c1-2.93-3.19-5.93-4.2-6.51s-6.2-3-11.27-2.43a26.05,26.05,0,0,0-8.84,2.3A14,14,0,0,0,45.37,57.52Z"/><path class="cls-2" d="M61.87,61.64a.87.87,0,0,1,.15-.26,3.62,3.62,0,0,1,2-.85c1.45-.22,3,.24,2.26,1.21-.51.67-2,1.19-3.86.63a1,1,0,0,1-.41-.21c-2.09.54-4.21,1-6.23,1.68a64.45,64.45,0,0,0-8.31,3.54c-.54.27-1.21-.09-.69-.4A44.17,44.17,0,0,1,61.87,61.64Z"/><path class="cls-2" d="M53.63,56.88a2.39,2.39,0,0,0,.45-.09,2.28,2.28,0,0,0,1.46-1.15c.39-.84-.41-1.73-2.08-1.31-1.17.29-2.06,1.14-1.11,2.23a1,1,0,0,0,.37.23,33.75,33.75,0,0,1-2.91,3.6,40.75,40.75,0,0,1-6.13,4.8c-.47.31.16.7.69.4C48.39,63.32,52.26,60,53.63,56.88Z"/><path class="cls-2" d="M40,66.74c1.12.6,2.22,1.22,3.3,1.84a12.08,12.08,0,0,1,1.78,1c.17.15-.33.48-.58.4a12,12,0,0,1-2-1c-1.13-.6-2.24-1.2-3.33-1.82C38.75,67,39.53,66.5,40,66.74Z"/><path class="cls-2" d="M37.15,68.38c1.12.6,2.22,1.22,3.3,1.84a12.08,12.08,0,0,1,1.78,1c.17.15-.32.48-.58.4a12.42,12.42,0,0,1-2-1c-1.13-.6-2.24-1.2-3.33-1.82C35.91,68.58,36.69,68.14,37.15,68.38Z"/><path class="cls-2" d="M76.38,48.65c.5-.92,4.43-3.61,5.54-3.8.07,0,.15.06.1.13a18.94,18.94,0,0,1-5.44,3.93A.18.18,0,0,1,76.38,48.65Z"/><path class="cls-2" d="M80,51.52A16.82,16.82,0,0,1,86,50a.18.18,0,0,1,0,.32A42,42,0,0,1,80.19,52,.26.26,0,0,1,80,51.52Z"/><path class="cls-2" d="M73.38,41.18a.19.19,0,0,1,.35.1,12,12,0,0,1-1.61,4.77.26.26,0,0,1-.43-.18A19.87,19.87,0,0,1,73.38,41.18Z"/><path class="cls-2" d="M80.12,59.16c1.38-.14,6.08.15,6.85.74a.14.14,0,0,1,0,.22c-.93.53-5.69,0-6.91-.29C79.64,59.73,79.76,59.2,80.12,59.16Z"/><path class="cls-2" d="M75.56,63.67a21.15,21.15,0,0,1,3.06,1.59,27.86,27.86,0,0,1,3.31,2c.21.15.1.53-.18.44A17.06,17.06,0,0,1,75.34,64C75.2,63.89,75.34,63.59,75.56,63.67Z"/><path class="cls-2" d="M72.85,65.05c2.11,1.07,4.63,2.45,6,4.48a.26.26,0,0,1-.36.36c-1-.59-4.7-3.81-5.79-4.56A.16.16,0,1,1,72.85,65.05Z"/><path class="cls-2" d="M69.51,67.18a17.28,17.28,0,0,1,2.63,4.11.36.36,0,0,1-.58.33,19.81,19.81,0,0,1-2.24-4.29C69.29,67.22,69.41,67.09,69.51,67.18Z"/><path class="cls-2" d="M54.58,40a24.4,24.4,0,0,1,3.62,4.71.22.22,0,0,1-.32.25,24.65,24.65,0,0,1-3.62-4.71A.21.21,0,0,1,54.58,40Z"/><path class="cls-2" d="M47,41.56c1.31.64,6,3.21,6.67,4.16.13.17-.08.42-.27.36-1.16-.37-5.51-3.33-6.73-3.95C46.27,41.93,46.6,41.38,47,41.56Z"/><path class="cls-2" d="M40.92,46.27a21.88,21.88,0,0,1,7.92,1.25.12.12,0,0,1,0,.23,32.44,32.44,0,0,1-8-.85A.32.32,0,0,1,40.92,46.27Z"/><polygon class="cls-4" points="66.75 20.79 54.23 27.99 41.73 20.77 54.25 13.57 66.75 20.79"/><polygon class="cls-5" points="74.61 86.79 62.1 94 49.6 86.78 62.11 79.57 74.61 86.79"/><path class="cls-6" d="M95.85,80s3.87,1.18,4.85,2.49a7.41,7.41,0,0,1,1.64,4c.19,1.61-.48,2.63-2.21,2.55a2.52,2.52,0,0,1-2.54-1.72s-4.27-.45-6.45-2S92.26,79.56,95.85,80Z"/><path class="cls-6" d="M84.43,59.82c3.42-.76,7.65.52,11.26,2.19a.7.7,0,0,1,.26.08c4.31,2.07,14.42,6.89,14.37,7,1.6,3.39-.82,8.65-5.3,8.08a8.14,8.14,0,0,1-7.23.66c.1.16,1.71,2.43,2.91,4.58-1.24.63-1.71,1.18-3.63,2.83-2.08-.84-5.23-3.58-7-4.92s-7.85-7.92-7.85-13.46A4.09,4.09,0,0,1,84.43,59.82Z"/><path class="cls-7" d="M83.73,83.85a19.08,19.08,0,0,1,2.7-7.36c2.71-4,3.76-6.69,6.66-8.55,3.51-2.24,5.73,1.78,9.41,2.3,0,0,3.85-1.52,4.12-1.67-.07.12-.11,5.75-1.6,8.64-.85,1.66-3.16,3.13-6.57,3.23A13.19,13.19,0,0,1,94.3,84.8a36.74,36.74,0,0,1,4,3.14,75.07,75.07,0,0,0,8.92,7.28,6.59,6.59,0,0,0-1.87,1.57,4.53,4.53,0,0,0-1,2.26c-5.85-1.34-10.48-4.4-15.29-7.79a18.39,18.39,0,0,1-3.9-4A2.1,2.1,0,0,1,83.73,83.85Z"/><path class="cls-8" d="M96.51,39.8s4.29-4.68,8.51.65a11.35,11.35,0,0,1,1.85,3.89c1.57,2.7,4.13,6.55,5.11,9.11a4.44,4.44,0,0,1-.17,3.16c-.64.87-7.72,3.58-10,1.11C97.3,52.75,96.51,39.8,96.51,39.8Z"/><path class="cls-9" d="M89.44,42l3.44,2.82c1.85-.66,3.26-2.85,4.06-4.95-.68-.54-3.08-1.91-3.25-2.64.71-2-.37-3.68-2.23-5.48a6,6,0,0,0-7.55-.2,3.31,3.31,0,0,0-1.67,3.16c.24,2.13,1.45,7.23,3.26,8.15C86.76,43.52,88.23,42.47,89.44,42Z"/><path class="cls-10" d="M94.39,31.73a4.69,4.69,0,0,0-2.81-3.87c-2-.9-5.46-1-7,.74a1.4,1.4,0,0,0-.09-.17,1.28,1.28,0,0,0-1.86-.09,3.21,3.21,0,0,0-1,1.4,1.55,1.55,0,0,0-1,0c-1.14.48-1.1,2.09-.7,3,.84,2,3.92,4.1,6.2,3.56-.11,1.14.44,1.76,1.35,2.51a4.79,4.79,0,0,0,5.09.42,5.84,5.84,0,0,0,3.36-5.13A3,3,0,0,0,94.39,31.73Z"/><path class="cls-9" d="M85.24,36.86a1,1,0,0,1,1.67-.5c1.26.83-.24,3.32-.24,3.32Z"/><path class="cls-11" d="M97.82,39c-2.1.91-2,1.29-6.34,4.66S86.87,49,87.27,51.13a30.51,30.51,0,0,0,2.41,7.22,27,27,0,0,0,4.95,8,12.83,12.83,0,0,0-2.17.88c-.67.42-.84,2.73-.08,3.44,2.15,2,11.1,7.14,18.46-.23a123.65,123.65,0,0,0-3.91-22.08C105.25,43.18,99.67,38.22,97.82,39Z"/><path class="cls-12" d="M95.14,67.6a28.36,28.36,0,0,0,5.25,2.15,42.62,42.62,0,0,0,4.63.93c-.7,0-4.61.39-6.22-.58S95.14,67.6,95.14,67.6Z"/><path class="cls-12" d="M103.69,66.4a5.24,5.24,0,0,1-3.61,1c-2.16-.21-3.52-.47-3.52-.47a12.39,12.39,0,0,1,3.52-.52A27.19,27.19,0,0,0,103.69,66.4Z"/><path class="cls-6" d="M104.26,93a29,29,0,0,1,4.48,0c1.3.22,1.49,2.57,2.63,3.67s4.43,1.68,5.31,4-.72,5.81-2.78,4.94c-3.39-1.43-10.23-7.12-10.23-7.12A4.92,4.92,0,0,1,104.26,93Z"/><path class="cls-8" d="M87.73,47.55c-1.62.89-3.48,4.08-3.09,8.73a19.14,19.14,0,0,0-1.39,6.32,14,14,0,0,0,5,6A4.94,4.94,0,0,0,88.7,67c1.68-.7,4.38-5,3.45-7.68,1.29-.63,2.75-4,1.21-9.2A3.84,3.84,0,0,0,87.73,47.55Z"/><path class="cls-9" d="M77.33,70.19l-2.11.91c-.74,0-1.64,0-2.42-.12-1.63-.17-2.32-.39-2.63.06s.46.42,1.06.95a5.45,5.45,0,0,0,.68.5c-.19.09-.38.16-.55.23-3.8,1.57-4.42,3.07-2.63,4.65,1.44,1.26,6.75-1.79,8.32-3.08a5.57,5.57,0,0,0,1.69-2Z"/><path class="cls-8" d="M86.72,60.21a34.18,34.18,0,0,1-3.47,2.39c-1.64,1-7.33,7.88-7.33,7.88a5.08,5.08,0,0,0,.69,2.27,5.73,5.73,0,0,0,1.68,1.54s9.56-4.14,10-5.73S86.72,60.21,86.72,60.21Z"/><path class="cls-6" d="M35.46,42.37a26.47,26.47,0,0,1-2.79-2.31c-.57-1.07-1.42-3.32-2.41-4.29a12.51,12.51,0,0,1-7.92,4.94,23.12,23.12,0,0,0,0,3.12c.06,2.88.48,5.64,3.06,6.7a8.18,8.18,0,0,0,2.81,2.23,21.4,21.4,0,0,1,3.39,2,6.43,6.43,0,0,0,1.44.83c1.33.52,2.55.21,3.91.38,1.69.22,3.43-1.59,3.42-3.7C40.38,51.41,39.36,45.51,35.46,42.37Z"/><path class="cls-13" d="M3.67,57.32c-2.51.08-1-4.08-.52-5.2.36-.88.66-1.77,1.59-2.13s2-.41,3-.73a5.07,5.07,0,0,1-.87-1.11c-1-1.76-3.2-.17-4,1S1.7,51.92.7,53.49A5,5,0,0,0,1,59c.9,1.42,2.77,1.31,3.55-.55.23-.53.43-1,.61-1.51A3.73,3.73,0,0,1,3.67,57.32Z"/><path class="cls-9" d="M7.78,53.94c.85,1,2.68-2.77,2.68-2.77a11.83,11.83,0,0,1-2.74-1.91c-.94.32-2,.37-3,.73s-1.23,1.25-1.59,2.13c-.45,1.12-2,5.28.52,5.2a3.73,3.73,0,0,0,1.46-.39c.47-1.22.85-2.29,1.25-3.08C6.54,53.54,6.94,53,7.78,53.94Z"/><path class="cls-13" d="M12.79,51c-2.51.07-1-4.09-.51-5.2.35-.89.65-1.78,1.59-2.13s2-.42,3-.73A4.88,4.88,0,0,1,16,41.85c-1-1.76-3.19-.17-4,1s-1.15,2.75-2.15,4.31a5,5,0,0,0,.27,5.51c.91,1.42,2.77,1.31,3.56-.55.22-.53.42-1,.6-1.52A3.87,3.87,0,0,1,12.79,51Z"/><path class="cls-9" d="M16.91,47.65c.84,1,2.67-2.78,2.67-2.78A11.45,11.45,0,0,1,16.85,43c-1,.31-2,.36-3,.73s-1.24,1.24-1.59,2.13c-.45,1.11-2,5.27.51,5.2a3.87,3.87,0,0,0,1.46-.4c.47-1.22.85-2.29,1.25-3.08C15.66,47.24,16.06,46.69,16.91,47.65Z"/><path class="cls-7" d="M28.33,40.06c-1.24-7.46-7.77-3.37-11.14-3.35a.51.51,0,0,0-.35.86c-1.58,2.91-3.94,7.32-3.09,10.68.17.69,1.75,2.13,1.82,2.25,0,2,.82,4.5.79,5.7a8.46,8.46,0,0,0,2.67,7,4.64,4.64,0,0,0,3,2.75c1.31.22,2.35-1.13,3.06-2.74,3.18-.12,2.62-5.9,2.54-9.23,0-2.38-.7-4.28,0-6.66A12.16,12.16,0,0,0,28.33,40.06Z"/><path class="cls-14" d="M52.67,34a16.11,16.11,0,0,0-4.43-1.12,26.93,26.93,0,0,0-7.32-3.65,59.42,59.42,0,0,1-3.25-9.37,20.56,20.56,0,0,0-3.24-6.62s-3.16,2.4-3.08,2.65,2.17,6.86,3.3,9.41,1.79,5.53,2.91,7.39c.48,1.19,7.47,1.9,9.72,2.53a19.44,19.44,0,0,0,2.94,1.73c1.94,1,3.1,3.13,4.51,2.24S54.84,35,52.67,34Z"/><path class="cls-15" d="M34.19,15.68c-2.17-2.75-3.23-3-5.86-1.46-3.21,1.84-5.81,3-7.21,4.17-2.39,2-3.78,6.07-4.18,11.22a28.78,28.78,0,0,1-.81,4.22c-1,2.81-.51,3.27.2,3.93-.39.38-.77,2,0,2.5,3.72,2.18,12,2.57,14.86-2.72.18-.33-.28-1.47-.51-1.77a2.31,2.31,0,0,0,1-1.94,4.07,4.07,0,0,0,2.29-3c2.21-.5,4.59-1.74,3.87-4.41-.35-1.3-2.11-4.31-2.43-5.84C34.92,17.78,34.81,16.46,34.19,15.68Z"/><path class="cls-14" d="M32.71,16.56c-.6-.1-2.18-.91-1.71-3.84.13-.82-3.56-3-3.56-2.91,0,2.65-.38,5.69-1.59,7.07,1.75,1.83,3.54,7.66,6.55,7C34.05,23.55,33.9,19.94,32.71,16.56Z"/><path class="cls-9" d="M35.89,5.91c-2.5-.57-3.81-.67-6,.23a12.65,12.65,0,0,0-3.55,1.63.31.31,0,0,0-.14.29c.57,3.29,1.68,6.78,5.38,8.25,3,1.2,4.74-2.14,5.27-4.37C37.44,9.33,37.63,6.29,35.89,5.91Z"/><path class="cls-6" d="M36.26,3A7,7,0,0,0,34.83.72C33.37-.83,32,.39,31.44,1.85,30.56.79,29.3-.21,27.82.46S26.35,2.73,26.92,4c-1.61-.61-3.8-1.51-4.79.27-.65,1.17.14,2,1.14,2.61-1.92.32-4.35,1.36-3.77,3.18.35,1.09,1.95,1.72,3,1.8a8.49,8.49,0,0,1,4.69,1.69,10,10,0,0,0,4-6.29,18.54,18.54,0,0,0,5.26.29,4.58,4.58,0,0,0,1.8-2.61,3.34,3.34,0,0,0,.18-2.69C37.76,1.2,36.83,2,36.26,3Z"/><path class="cls-9" d="M30,11.09s-.6-2-1.91-1,.54,3.09.54,3.09Z"/><path class="cls-16" d="M29.64,33.44a14.7,14.7,0,0,0-4.59-.77,12.6,12.6,0,0,0-3,.77s2.27.32,3.8.39A20.55,20.55,0,0,0,29.64,33.44Z"/><path class="cls-16" d="M28.33,37.08c-.19,0-3.54-.09-5.34-.22s-2.52-.22-2.52-.22a6.48,6.48,0,0,0,3.58,1.12A16.73,16.73,0,0,0,28.33,37.08Z"/><path class="cls-9" d="M39.39,43.87a6.07,6.07,0,0,0-4.45-3.19c-2.19-1.85-5.22-5.21-7.75-6a42,42,0,0,0-1.63-8.12A7.78,7.78,0,0,0,25.37,21c-.61-1-3.09-2.56-4.9-.62-1.47,1.57-2.33,6.18-2,8.37.25,1.55.94,3,2.67,2.74.13.94,1.52,3.93,2.27,6.25.27.83,1,.64,2.41,1.8a24.14,24.14,0,0,0,8.21,3.53A7.91,7.91,0,0,0,37,47c1.06.78,3.1,1.36,3.92.22S40,45.12,39.39,43.87Z"/><path class="cls-7" d="M9.11,50.37s-2.19,2.21-1.33,3.57,3.62,3.79,5.29,5.49S17.93,63,20,64.62s3,.44,3,.44l1.81-2.92S20.4,56,20.23,55.72A35.16,35.16,0,0,0,9.11,50.37Z"/><polygon class="cls-1" points="54.74 21.96 45.04 16.36 60.19 7.67 69.9 13.27 54.74 21.96"/><path class="cls-17" d="M64,11.77a5.75,5.75,0,0,0-4.95-1c-1.28.36-1.92,1.17-1.34,1.78.19.2.67,0,.61-.21s-.14-.28-.11-.38c.22-.83,2.11-1.16,3.39-.74a7.14,7.14,0,0,1,1.28.54c1,.6,1.16,1.59-.1,2.36-1.7,1-3.64.4-5.49.43s-3.83.77-3.28,1.91c.14.3.93.15.86-.16-.3-1.4,3-1.22,3.91-1.17a14.88,14.88,0,0,0,1.77.07,6.48,6.48,0,0,0,2.35-.55C64.48,13.91,64.93,12.64,64,11.77Z"/><path class="cls-17" d="M53.63,17.65c.12-.27,0-.56-.37-.72a2.24,2.24,0,0,0-1.73.09c-.89.38-.86,1-.09,1.28A2,2,0,0,0,53.63,17.65Zm-1.49.28c-.35,0-.59-.25-.42-.45a.86.86,0,0,1,.5-.22c.25,0,.6.08.63.24S52.5,17.93,52.14,17.93Z"/><polygon class="cls-18" points="62.55 87.42 72.26 81.82 57.1 73.13 47.4 78.74 62.55 87.42"/><path class="cls-17" d="M55.11,76.29c-1.43.53-2.65,1.76-1.72,2.86a3.17,3.17,0,0,0,3.08.78c.35-.11.05-.39-.35-.36a4.63,4.63,0,0,1-.67.07c-1.43-.13-2-1.22-1.27-2a4.59,4.59,0,0,1,.92-.74,4.5,4.5,0,0,1,4.09.06c1.77,1,.69,2.1.75,3.17s1.34,2.21,3.31,1.89c.52-.08.27-.53-.28-.5-2.42.18-2.11-1.75-2-2.26a2.69,2.69,0,0,0,.11-1,2.12,2.12,0,0,0-1-1.35A6,6,0,0,0,55.11,76.29Z"/><path class="cls-17" d="M65.3,82.26a1.83,1.83,0,0,0-1.25.22c-.25.18-.41.56.15,1a1.89,1.89,0,0,0,2.22.06C66.92,83.08,66.25,82.4,65.3,82.26Zm.48.86c0,.2-.44.35-.78.25a.57.57,0,0,1-.38-.29c-.05-.15.13-.35.41-.37S65.79,82.91,65.78,83.12Z"/></g></g></svg>